<svg width="25" height="24" viewBox="0 0 25 24" fill="none" xmlns="http://www.w3.org/2000/svg">
<path d="M18.0948 10.9319C19.6972 10.9319 20.997 9.63295 20.997 8.03062C20.997 6.42829 19.6972 5.12937 18.0948 5.12937" stroke="#828282" stroke-width="1.5" stroke-linecap="round" stroke-linejoin="round"/>
<path d="M19.4291 14.0847C19.9076 14.1177 20.3833 14.1856 20.8517 14.291C21.5026 14.4184 22.2854 14.6852 22.5641 15.2691C22.7419 15.6431 22.7419 16.0785 22.5641 16.4534C22.2863 17.0373 21.5026 17.3032 20.8517 17.437" stroke="#828282" stroke-width="1.5" stroke-linecap="round" stroke-linejoin="round"/>
<path d="M6.78998 10.9319C5.18765 10.9319 3.88782 9.63295 3.88782 8.03062C3.88782 6.42829 5.18765 5.12937 6.78998 5.12937" stroke="#828282" stroke-width="1.5" stroke-linecap="round" stroke-linejoin="round"/>
<path d="M5.45577 14.0847C4.97727 14.1177 4.50152 14.1856 4.0331 14.291C3.38227 14.4184 2.59943 14.6852 2.32168 15.2691C2.14293 15.6431 2.14293 16.0785 2.32168 16.4534C2.59852 17.0373 3.38227 17.3032 4.0331 17.437" stroke="#828282" stroke-width="1.5" stroke-linecap="round" stroke-linejoin="round"/>
<path fill-rule="evenodd" clip-rule="evenodd" d="M12.4378 14.7095C15.6846 14.7095 18.4584 15.2009 18.4584 17.1671C18.4584 19.1325 15.7029 19.6421 12.4378 19.6421C9.19003 19.6421 6.41711 19.1508 6.41711 17.1845C6.41711 15.2183 9.17261 14.7095 12.4378 14.7095Z" stroke="#828282" stroke-width="1.5" stroke-linecap="round" stroke-linejoin="round"/>
<path fill-rule="evenodd" clip-rule="evenodd" d="M12.4377 11.9049C10.2964 11.9049 8.57947 10.188 8.57947 8.04575C8.57947 5.90442 10.2964 4.1875 12.4377 4.1875C14.5791 4.1875 16.296 5.90442 16.296 8.04575C16.296 10.188 14.5791 11.9049 12.4377 11.9049Z" stroke="#828282" stroke-width="1.5" stroke-linecap="round" stroke-linejoin="round"/>
</svg>
