<svg width="60" height="60" viewBox="0 0 60 60" fill="none" xmlns="http://www.w3.org/2000/svg">
<rect opacity="0.1" width="60" height="60" rx="24" fill="#F2994A"/>
<path fill-rule="evenodd" clip-rule="evenodd" d="M35.5444 24.9771C35.5444 28.11 33.0468 30.6221 29.932 30.6221C26.8172 30.6221 24.3196 28.11 24.3196 24.9771C24.3196 21.843 26.8172 19.3333 29.932 19.3333C33.0468 19.3333 35.5444 21.843 35.5444 24.9771ZM29.932 40.6666C25.3571 40.6666 21.4508 39.9414 21.4508 37.0402C21.4508 34.1378 25.332 33.3861 29.932 33.3861C34.5069 33.3861 38.4133 34.1114 38.4133 37.0138C38.4133 39.9149 34.532 40.6666 29.932 40.6666ZM37.9428 25.0789C37.9428 26.676 37.4664 28.1638 36.6307 29.4006C36.5447 29.5279 36.6212 29.6996 36.7728 29.7261C36.9817 29.7621 37.1978 29.7825 37.4175 29.7885C39.6082 29.8461 41.5745 28.428 42.1177 26.293C42.9224 23.1216 40.5597 20.2745 37.5512 20.2745C37.2241 20.2745 36.9113 20.3093 36.6068 20.3718C36.565 20.3814 36.5209 20.4006 36.497 20.4378C36.4683 20.4834 36.4898 20.5447 36.5185 20.5843C37.4222 21.8584 37.9428 23.4122 37.9428 25.0789ZM41.5709 32.0167C43.043 32.3061 44.0112 32.8969 44.4124 33.7555C44.7514 34.4604 44.7514 35.2781 44.4124 35.9818C43.7987 37.3135 41.8205 37.741 41.0516 37.8515C40.8928 37.8755 40.7651 37.7374 40.7818 37.5777C41.1746 33.8876 38.0502 32.138 37.242 31.7357C37.2073 31.7177 37.2002 31.6901 37.2038 31.6733C37.2062 31.6613 37.2205 31.6421 37.2467 31.6385C38.9958 31.6061 40.8761 31.8462 41.5709 32.0167ZM22.5828 29.7884C22.8025 29.7824 23.0174 29.7632 23.2275 29.726C23.3791 29.6996 23.4555 29.5278 23.3695 29.4006C22.5338 28.1637 22.0575 26.6759 22.0575 25.0788C22.0575 23.4121 22.578 21.8583 23.4818 20.5842C23.5104 20.5446 23.5307 20.4833 23.5033 20.4377C23.4794 20.4017 23.434 20.3813 23.3934 20.3717C23.0878 20.3092 22.775 20.2744 22.4479 20.2744C19.4393 20.2744 17.0767 23.1215 17.8825 26.2929C18.4257 28.4279 20.392 29.8461 22.5828 29.7884ZM22.7959 31.6726C22.7995 31.6906 22.7923 31.717 22.7589 31.7363C21.9494 32.1385 18.8251 33.8881 19.2179 37.577C19.2346 37.7379 19.108 37.8748 18.9492 37.852C18.1804 37.7415 16.2022 37.314 15.5885 35.9823C15.2482 35.2774 15.2482 34.4609 15.5885 33.756C15.9896 32.8974 16.9567 32.3066 18.4287 32.016C19.1247 31.8467 21.0039 31.6066 22.7541 31.639C22.7804 31.6426 22.7935 31.6618 22.7959 31.6726Z" fill="url(#paint0_linear_1_516)"/>
<defs>
<linearGradient id="paint0_linear_1_516" x1="30" y1="19.3333" x2="30" y2="40.6667" gradientUnits="userSpaceOnUse">
<stop stop-color="#FFAB60"/>
<stop offset="1" stop-color="#F2994A"/>
</linearGradient>
</defs>
</svg>
