<svg width="40" height="40" viewBox="0 0 40 40" fill="none" xmlns="http://www.w3.org/2000/svg">
<circle opacity="0.1" cx="20" cy="20" r="20" fill="#FF4848"/>
<path fill-rule="evenodd" clip-rule="evenodd" d="M25.1799 12.41C25.1799 11.08 26.2599 10 27.5899 10C28.9199 10 29.9999 11.08 29.9999 12.41C29.9999 13.74 28.9199 14.82 27.5899 14.82C26.2599 14.82 25.1799 13.74 25.1799 12.41ZM21.3298 22.7593L24.2198 19.0303L24.1798 19.0503C24.3398 18.8303 24.3698 18.5503 24.2598 18.3003C24.1508 18.0503 23.9098 17.8803 23.6508 17.8603C23.3798 17.8303 23.1108 17.9503 22.9498 18.1703L20.5308 21.3003L17.7598 19.1203C17.5898 18.9903 17.3898 18.9393 17.1898 18.9603C16.9908 18.9903 16.8108 19.0993 16.6898 19.2593L13.7308 23.1103L13.6698 23.2003C13.4998 23.5193 13.5798 23.9293 13.8798 24.1503C14.0198 24.2403 14.1698 24.3003 14.3398 24.3003C14.5708 24.3103 14.7898 24.1893 14.9298 24.0003L17.4398 20.7693L20.2898 22.9103L20.3798 22.9693C20.6998 23.1393 21.0998 23.0603 21.3298 22.7593ZM23.4498 11.7803C23.4098 12.0303 23.3898 12.2803 23.3898 12.5303C23.3898 14.7803 25.2098 16.5993 27.4498 16.5993C27.6998 16.5993 27.9398 16.5703 28.1898 16.5303V24.5993C28.1898 27.9903 26.1898 30.0003 22.7898 30.0003H15.4008C11.9998 30.0003 9.99976 27.9903 9.99976 24.5993V17.2003C9.99976 13.8003 11.9998 11.7803 15.4008 11.7803H23.4498Z" fill="url(#paint0_linear_36_281)"/>
<defs>
<linearGradient id="paint0_linear_36_281" x1="19.9998" y1="10" x2="19.9998" y2="30.0003" gradientUnits="userSpaceOnUse">
<stop stop-color="#FF7C7C"/>
<stop offset="1" stop-color="#FF4848"/>
</linearGradient>
</defs>
</svg>
