<svg width="360" height="24" viewBox="0 0 360 24" fill="none" xmlns="http://www.w3.org/2000/svg">
<rect width="360" height="24" fill="#CF3066"/>
<mask id="mask0_1_596" style="mask-type:luminance" maskUnits="userSpaceOnUse" x="250" y="6" width="16" height="12">
<path fill-rule="evenodd" clip-rule="evenodd" d="M250 6L258 18L266 6H250Z" fill="white"/>
</mask>
<g mask="url(#mask0_1_596)">
<path fill-rule="evenodd" clip-rule="evenodd" d="M258 6C251.4 6 246 11.4 246 18C246 24.6 251.4 30 258 30C264.6 30 270 24.6 270 18C270 11.4 264.6 6 258 6ZM258 27C253 27 249 23 249 18C249 13 253 9 258 9C263 9 267 13 267 18C267 23 263 27 258 27Z" fill="white" fill-opacity="0.3"/>
<path fill-rule="evenodd" clip-rule="evenodd" d="M258 9C253 9 249 13 249 18C249 23 253 27 258 27C263 27 267 23 267 18C267 13 263 9 258 9ZM258 24C254.7 24 252 21.3 252 18C252 14.7 254.7 12 258 12C261.3 12 264 14.7 264 18C264 21.3 261.3 24 258 24Z" fill="white" fill-opacity="0.9"/>
<path fill-rule="evenodd" clip-rule="evenodd" d="M258 12C254.7 12 252 14.7 252 18C252 21.3 254.7 24 258 24C261.3 24 264 21.3 264 18C264 14.7 261.3 12 258 12ZM258 21C256.3 21 255 19.7 255 18C255 16.3 256.3 15 258 15C259.7 15 261 16.3 261 18C261 19.7 259.7 21 258 21Z" fill="white" fill-opacity="0.9"/>
<path fill-rule="evenodd" clip-rule="evenodd" d="M258 21C259.657 21 261 19.6569 261 18C261 16.3431 259.657 15 258 15C256.343 15 255 16.3431 255 18C255 19.6569 256.343 21 258 21Z" fill="white" fill-opacity="0.9"/>
</g>
<mask id="mask1_1_596" style="mask-type:luminance" maskUnits="userSpaceOnUse" x="276" y="6" width="12" height="12">
<path fill-rule="evenodd" clip-rule="evenodd" d="M288 18V6L276 18H288Z" fill="white"/>
</mask>
<g mask="url(#mask1_1_596)">
<path fill-rule="evenodd" clip-rule="evenodd" d="M285 6V18H288V6H285Z" fill="white" fill-opacity="0.3"/>
<path fill-rule="evenodd" clip-rule="evenodd" d="M282 6V18H285V6H282Z" fill="white" fill-opacity="0.3"/>
<path fill-rule="evenodd" clip-rule="evenodd" d="M279 6V18H282V6H279Z" fill="white" fill-opacity="0.9"/>
<path fill-rule="evenodd" clip-rule="evenodd" d="M276 6V18H279V6H276Z" fill="white" fill-opacity="0.9"/>
</g>
<mask id="mask2_1_596" style="mask-type:luminance" maskUnits="userSpaceOnUse" x="302" y="5" width="8" height="13">
<path fill-rule="evenodd" clip-rule="evenodd" d="M309 6H308V5H304V6H303C302.4 6 302 6.4 302 7V17C302 17.6 302.4 18 303 18H309C309.6 18 310 17.6 310 17V7C310 6.4 309.6 6 309 6Z" fill="white"/>
</mask>
<g mask="url(#mask2_1_596)">
<path fill-rule="evenodd" clip-rule="evenodd" d="M302 15V18H310V15H302Z" fill="white" fill-opacity="0.9"/>
<path fill-rule="evenodd" clip-rule="evenodd" d="M302 12V15H310V12H302Z" fill="white" fill-opacity="0.9"/>
<path fill-rule="evenodd" clip-rule="evenodd" d="M302 9V12H310V9H302Z" fill="white" fill-opacity="0.3"/>
<path fill-rule="evenodd" clip-rule="evenodd" d="M302 6V9H310V6H302Z" fill="white" fill-opacity="0.3"/>
<path fill-rule="evenodd" clip-rule="evenodd" d="M304 5V6H308V5H304Z" fill="white" fill-opacity="0.3"/>
</g>
<g opacity="0.9">
<path d="M323.627 17H322.447V9.17334L320.079 10.043V8.97656L323.443 7.71338H323.627V17ZM333.124 17H327.068V16.1558L330.267 12.6011C330.741 12.0636 331.067 11.6278 331.245 11.2935C331.427 10.9549 331.518 10.6058 331.518 10.2461C331.518 9.76367 331.372 9.368 331.08 9.05908C330.788 8.75016 330.398 8.5957 329.912 8.5957C329.328 8.5957 328.873 8.76286 328.547 9.09717C328.225 9.42725 328.064 9.88851 328.064 10.481H326.89C326.89 9.63037 327.163 8.94271 327.709 8.41797C328.259 7.89323 328.993 7.63086 329.912 7.63086C330.771 7.63086 331.45 7.85726 331.949 8.31006C332.449 8.75863 332.698 9.35742 332.698 10.1064C332.698 11.0163 332.118 12.0996 330.959 13.3564L328.483 16.0415H333.124V17ZM334.45 16.3843C334.45 16.1812 334.509 16.0119 334.628 15.8765C334.751 15.741 334.933 15.6733 335.174 15.6733C335.415 15.6733 335.597 15.741 335.72 15.8765C335.847 16.0119 335.91 16.1812 335.91 16.3843C335.91 16.5789 335.847 16.7419 335.72 16.873C335.597 17.0042 335.415 17.0698 335.174 17.0698C334.933 17.0698 334.751 17.0042 334.628 16.873C334.509 16.7419 334.45 16.5789 334.45 16.3843ZM334.457 10.7793C334.457 10.5762 334.516 10.4069 334.634 10.2715C334.757 10.1361 334.939 10.0684 335.18 10.0684C335.421 10.0684 335.603 10.1361 335.726 10.2715C335.853 10.4069 335.917 10.5762 335.917 10.7793C335.917 10.974 335.853 11.1369 335.726 11.2681C335.603 11.3993 335.421 11.4648 335.18 11.4648C334.939 11.4648 334.757 11.3993 334.634 11.2681C334.516 11.1369 334.457 10.974 334.457 10.7793ZM339.224 11.8076H340.106C340.66 11.7992 341.096 11.6532 341.414 11.3696C341.731 11.0861 341.89 10.7031 341.89 10.2207C341.89 9.13737 341.35 8.5957 340.271 8.5957C339.763 8.5957 339.357 8.7417 339.052 9.03369C338.752 9.32145 338.602 9.70443 338.602 10.1826H337.427C337.427 9.45052 337.694 8.84326 338.227 8.36084C338.764 7.87419 339.446 7.63086 340.271 7.63086C341.143 7.63086 341.826 7.86149 342.321 8.32275C342.816 8.78402 343.064 9.42513 343.064 10.2461C343.064 10.6481 342.933 11.0374 342.67 11.4141C342.412 11.7907 342.059 12.0721 341.61 12.2583C342.118 12.4191 342.51 12.6857 342.785 13.0581C343.064 13.4305 343.204 13.8854 343.204 14.4229C343.204 15.2523 342.933 15.9103 342.391 16.397C341.849 16.8836 341.145 17.127 340.277 17.127C339.41 17.127 338.703 16.8921 338.157 16.4224C337.616 15.9526 337.345 15.3327 337.345 14.5625H338.525C338.525 15.0492 338.684 15.4385 339.001 15.7305C339.319 16.0225 339.744 16.1685 340.277 16.1685C340.844 16.1685 341.278 16.0203 341.579 15.7241C341.879 15.4279 342.029 15.0026 342.029 14.4482C342.029 13.9108 341.864 13.4982 341.534 13.2104C341.204 12.9227 340.728 12.7746 340.106 12.7661H339.224V11.8076ZM350.611 13.0581C350.611 14.4334 350.376 15.4554 349.907 16.124C349.437 16.7926 348.703 17.127 347.704 17.127C346.718 17.127 345.988 16.8011 345.514 16.1494C345.04 15.4935 344.795 14.516 344.778 13.2168V11.6489C344.778 10.2905 345.013 9.28125 345.482 8.62109C345.952 7.96094 346.688 7.63086 347.691 7.63086C348.686 7.63086 349.418 7.95036 349.888 8.58936C350.357 9.22412 350.599 10.2059 350.611 11.5347V13.0581ZM349.437 11.4521C349.437 10.4577 349.297 9.73405 349.018 9.28125C348.739 8.82422 348.297 8.5957 347.691 8.5957C347.09 8.5957 346.653 8.8221 346.377 9.2749C346.102 9.7277 345.961 10.4238 345.952 11.3633V13.2422C345.952 14.2409 346.096 14.9793 346.384 15.4575C346.676 15.9315 347.116 16.1685 347.704 16.1685C348.284 16.1685 348.713 15.9442 348.993 15.4956C349.276 15.047 349.424 14.3403 349.437 13.3755V11.4521Z" fill="white"/>
</g>
</svg>
