<svg width="40" height="40" viewBox="0 0 40 40" fill="none" xmlns="http://www.w3.org/2000/svg">
<circle opacity="0.1" cx="20" cy="20" r="20" fill="#724BDF"/>
<path fill-rule="evenodd" clip-rule="evenodd" d="M20 30.0001C14.48 30.0001 10 25.5301 10 20.0001C10 14.4801 14.48 10.0001 20 10.0001C25.53 10.0001 30 14.4801 30 20.0001C30 25.5301 25.53 30.0001 20 30.0001ZM23.19 23.7101C23.31 23.7801 23.44 23.8201 23.58 23.8201C23.83 23.8201 24.08 23.6901 24.22 23.4501C24.43 23.1001 24.32 22.6401 23.96 22.4201L20.4 20.3001V15.6801C20.4 15.2601 20.06 14.9301 19.65 14.9301C19.24 14.9301 18.9 15.2601 18.9 15.6801V20.7301C18.9 20.9901 19.04 21.2301 19.27 21.3701L23.19 23.7101Z" fill="url(#paint0_linear_36_284)"/>
<defs>
<linearGradient id="paint0_linear_36_284" x1="20" y1="10.0001" x2="20" y2="30.0001" gradientUnits="userSpaceOnUse">
<stop stop-color="#916AFF"/>
<stop offset="1" stop-color="#724BDF"/>
</linearGradient>
</defs>
</svg>
