<svg width="40" height="40" viewBox="0 0 40 40" fill="none" xmlns="http://www.w3.org/2000/svg">
<circle cx="20" cy="20" r="20" fill="url(#paint0_linear_36_487)"/>
<g clip-path="url(#clip0_36_487)">
<path d="M29.3124 20.0626C29.7707 19.5376 30 18.9168 30 18.2001C30 17.5501 29.7622 16.9877 29.2881 16.5125C28.8132 16.0373 28.2507 15.7998 27.6008 15.7998H24.1384C24.1717 15.6831 24.2051 15.5832 24.2383 15.4998C24.2713 15.4165 24.3176 15.3248 24.3757 15.2248C24.4339 15.1247 24.4757 15.0497 24.5006 14.9998C24.6505 14.7166 24.7653 14.4831 24.8446 14.2999C24.9237 14.1164 25.0025 13.8665 25.0819 13.5498C25.1612 13.2333 25.2006 12.9165 25.2006 12.5998C25.2006 12.3999 25.1982 12.2373 25.1942 12.1124C25.1903 11.9874 25.1691 11.7998 25.1319 11.5498C25.0942 11.2999 25.0441 11.0915 24.9817 10.9249C24.9191 10.7583 24.8191 10.5707 24.6818 10.3625C24.5442 10.1539 24.3777 9.98538 24.1816 9.85614C23.9857 9.72698 23.7358 9.61867 23.4316 9.53124C23.1272 9.44372 22.7836 9.39998 22.4 9.39998C22.1834 9.39998 21.9961 9.47918 21.8376 9.63754C21.6709 9.80417 21.5291 10.0125 21.4125 10.2624C21.2958 10.5124 21.2145 10.7291 21.1686 10.9125C21.1228 11.0958 21.0706 11.35 21.0125 11.675C20.9373 12.0251 20.8813 12.277 20.8435 12.4312C20.8061 12.5853 20.733 12.7874 20.6247 13.0373C20.5163 13.2875 20.3873 13.4873 20.2372 13.6374C19.9623 13.9124 19.5415 14.4124 18.9747 15.1373C18.5663 15.6706 18.1455 16.1747 17.7122 16.6498C17.2788 17.1249 16.9622 17.3707 16.7622 17.3873C16.554 17.404 16.3748 17.4894 16.2248 17.6436C16.0748 17.7978 15.9998 17.9791 15.9998 18.1874V26.1998C15.9998 26.4165 16.0789 26.6018 16.2372 26.756C16.3955 26.9103 16.583 26.9915 16.7997 26.9999C17.0913 27.0082 17.7497 27.1914 18.7747 27.55C19.4163 27.7664 19.9183 27.9312 20.2808 28.0435C20.6432 28.1559 21.1498 28.2768 21.7993 28.4061C22.4494 28.5352 23.0493 28.6 23.5992 28.6H23.8117H24.7618H25.2117C26.3203 28.5834 27.1407 28.2582 27.6743 27.6251C28.1574 27.05 28.3615 26.2958 28.2868 25.3625C28.6117 25.0542 28.8369 24.6627 28.9617 24.1876C29.1032 23.6795 29.1032 23.192 28.9617 22.7254C29.345 22.2171 29.5242 21.6462 29.499 21.0129C29.5 20.746 29.4377 20.4294 29.3124 20.0626Z" fill="white"/>
<path d="M14.4 17.4H10.8001C10.5833 17.4 10.3958 17.4792 10.2375 17.6376C10.0792 17.7959 10 17.9834 10 18.2001V26.2003C10 26.4167 10.0792 26.6043 10.2376 26.7628C10.396 26.9209 10.5835 27.0001 10.8002 27.0001H14.4C14.6167 27.0001 14.8041 26.9209 14.9625 26.7628C15.1208 26.6043 15.2 26.4168 15.2 26.2003V18.2001C15.2 17.9834 15.1208 17.7959 14.9625 17.6376C14.8041 17.4792 14.6167 17.4 14.4 17.4ZM12.9625 25.1688C12.8042 25.323 12.6167 25.4 12.4 25.4C12.175 25.4 11.9854 25.323 11.8313 25.1688C11.6771 25.0147 11.6001 24.8251 11.6001 24.6001C11.6001 24.3835 11.6771 24.1959 11.8313 24.0376C11.9854 23.8793 12.175 23.8 12.4 23.8C12.6167 23.8 12.8042 23.8793 12.9625 24.0376C13.1208 24.1958 13.2 24.3834 13.2 24.6001C13.2 24.8251 13.121 25.0146 12.9625 25.1688Z" fill="white"/>
</g>
<defs>
<linearGradient id="paint0_linear_36_487" x1="20" y1="0" x2="20" y2="40" gradientUnits="userSpaceOnUse">
<stop stop-color="#2EA7FF"/>
<stop offset="1" stop-color="#2E68FF"/>
</linearGradient>
<clipPath id="clip0_36_487">
<rect width="20" height="20" fill="white" transform="translate(10 9)"/>
</clipPath>
</defs>
</svg>
