<svg width="30" height="30" viewBox="0 0 30 30" fill="none" xmlns="http://www.w3.org/2000/svg">
<g id="Iconly/Light/More Square">
<g id="More Square">
<path id="Stroke 1" fill-rule="evenodd" clip-rule="evenodd" d="M26.5623 20.4184L26.5623 9.58214C26.5623 5.80589 23.8885 3.43838 20.1048 3.43838L9.89476 3.43838C6.11101 3.43838 3.43726 5.79338 3.43726 9.58213L3.43726 20.4171C3.43726 24.2059 6.11101 26.5634 9.89476 26.5634L20.1048 26.5634C23.8885 26.5634 26.5623 24.2059 26.5623 20.4184Z" stroke="#E3E3E3" stroke-linecap="round" stroke-linejoin="round"/>
<path id="Fill 3" d="M13.5033 9.401C13.5033 8.57475 14.1745 7.9035 14.9995 7.9035C15.8245 7.9035 16.497 8.57475 16.497 9.401C16.497 10.2273 15.8245 10.8985 14.9995 10.8985C14.1745 10.8985 13.5033 10.2273 13.5033 9.401Z" fill="#828282"/>
<path id="Fill 5" d="M13.5033 15.0003C13.5033 14.174 14.1745 13.5028 14.9995 13.5028C15.8245 13.5028 16.497 14.174 16.497 15.0003C16.497 15.8265 15.8245 16.4978 14.9995 16.4978C14.1745 16.4978 13.5033 15.8265 13.5033 15.0003Z" fill="#828282"/>
<path id="Fill 7" d="M13.5033 20.599C13.5033 19.7728 14.1745 19.1015 14.9995 19.1015C15.8245 19.1015 16.497 19.7728 16.497 20.599C16.497 21.4253 15.8245 22.0965 14.9995 22.0965C14.1745 22.0965 13.5033 21.4253 13.5033 20.599Z" fill="#828282"/>
</g>
</g>
</svg>
