<svg width="60" height="60" viewBox="0 0 60 60" fill="none" xmlns="http://www.w3.org/2000/svg">
<rect opacity="0.1" width="60" height="60" rx="24" fill="#2F80ED"/>
<path fill-rule="evenodd" clip-rule="evenodd" d="M26.6667 30.7382C30.3394 30.7382 33.2835 27.7561 33.2835 24.0358C33.2835 20.3155 30.3394 17.3333 26.6667 17.3333C22.9939 17.3333 20.0498 20.3155 20.0498 24.0358C20.0498 27.7561 22.9939 30.7382 26.6667 30.7382ZM26.6667 34.0202C21.2723 34.0202 16.6667 34.8827 16.6667 38.3286C16.6667 41.7731 21.2443 42.6666 26.6667 42.6666C32.0597 42.6666 36.6667 41.8042 36.6667 38.3583C36.6667 34.9125 32.0891 34.0202 26.6667 34.0202ZM40.5306 26.7838H42.1347C42.795 26.7838 43.3334 27.3297 43.3334 27.9993C43.3334 28.6689 42.795 29.2148 42.1347 29.2148H40.5306V30.7845C40.5306 31.4541 39.9936 32 39.332 32C38.6717 32 38.1334 31.4541 38.1334 30.7845V29.2148H36.532C35.8703 29.2148 35.3334 28.6689 35.3334 27.9993C35.3334 27.3297 35.8703 26.7838 36.532 26.7838H38.1334V25.2155C38.1334 24.5459 38.6717 24 39.332 24C39.9936 24 40.5306 24.5459 40.5306 25.2155V26.7838Z" fill="url(#paint0_linear_1_507)"/>
<defs>
<linearGradient id="paint0_linear_1_507" x1="30" y1="17.3333" x2="30" y2="42.6667" gradientUnits="userSpaceOnUse">
<stop stop-color="#549DFF"/>
<stop offset="1" stop-color="#2F80ED"/>
</linearGradient>
</defs>
</svg>
