<svg width="40" height="40" viewBox="0 0 40 40" fill="none" xmlns="http://www.w3.org/2000/svg">
<circle opacity="0.1" cx="20" cy="20" r="20" fill="#CF3066"/>
<path fill-rule="evenodd" clip-rule="evenodd" d="M24.4109 10.7686L24.4119 11.5182C27.1665 11.7341 28.9862 13.6112 28.9891 16.4898L29 24.9155C29.0039 28.054 27.0322 29.985 23.8718 29.99L16.1519 30C13.0112 30.004 11.0148 28.027 11.0109 24.8795L11 16.5527C10.9961 13.6552 12.7515 11.7831 15.5062 11.5302L15.5052 10.7806C15.5042 10.3408 15.83 10.01 16.2644 10.01C16.6989 10.009 17.0247 10.3388 17.0257 10.7786L17.0267 11.4783L22.8914 11.4703L22.8904 10.7706C22.8894 10.3308 23.2152 10.001 23.6497 10C24.0742 9.999 24.4099 10.3288 24.4109 10.7686ZM12.5215 16.8616L27.4696 16.8416V16.4918C27.4272 14.3428 26.349 13.2154 24.4138 13.0475L24.4148 13.8171C24.4148 14.2469 24.0801 14.5877 23.6556 14.5877C23.2212 14.5887 22.8943 14.2489 22.8943 13.8191L22.8934 13.0095L17.0286 13.0175L17.0296 13.8261C17.0296 14.2569 16.7048 14.5967 16.2704 14.5967C15.8359 14.5977 15.5091 14.2589 15.5091 13.8281L15.5081 13.0585C13.5829 13.2514 12.5175 14.3828 12.5205 16.5507L12.5215 16.8616ZM23.2399 21.4043V21.4153C23.2498 21.8751 23.625 22.2239 24.0801 22.2139C24.5244 22.2029 24.8789 21.8221 24.869 21.3623C24.8483 20.9225 24.4918 20.5637 24.0485 20.5647C23.5944 20.5747 23.2389 20.9445 23.2399 21.4043ZM24.0554 25.892C23.6013 25.882 23.235 25.5032 23.234 25.0435C23.2241 24.5837 23.5884 24.2029 24.0426 24.1919H24.0525C24.5165 24.1919 24.8927 24.5707 24.8927 25.0405C24.8937 25.5102 24.5185 25.891 24.0554 25.892ZM19.1721 21.4203C19.1919 21.8801 19.568 22.2389 20.0222 22.2189C20.4665 22.1979 20.821 21.8181 20.8012 21.3583C20.7903 20.9085 20.425 20.5587 19.9807 20.5597C19.5266 20.5797 19.1711 20.9605 19.1721 21.4203ZM20.0262 25.8471C19.572 25.8671 19.1968 25.5082 19.1761 25.0485C19.1761 24.5887 19.5305 24.2089 19.9847 24.1879C20.429 24.1869 20.7953 24.5367 20.8052 24.9855C20.8259 25.4463 20.4705 25.8261 20.0262 25.8471ZM15.1043 21.4553C15.1241 21.915 15.5002 22.2749 15.9544 22.2539C16.3987 22.2339 16.7532 21.8531 16.7324 21.3933C16.7226 20.9435 16.3572 20.5937 15.912 20.5947C15.4578 20.6147 15.1033 20.9955 15.1043 21.4553ZM15.9584 25.8521C15.5042 25.8731 15.129 25.5132 15.1083 25.0535C15.1073 24.5937 15.4627 24.2129 15.9169 24.1929C16.3612 24.1919 16.7275 24.5417 16.7374 24.9915C16.7581 25.4513 16.4037 25.8321 15.9584 25.8521Z" fill="url(#paint0_linear_36_297)"/>
<defs>
<linearGradient id="paint0_linear_36_297" x1="20" y1="10" x2="20" y2="30" gradientUnits="userSpaceOnUse">
<stop stop-color="#FA5990"/>
<stop offset="1" stop-color="#CF3066"/>
</linearGradient>
</defs>
</svg>
