<svg width="60" height="60" viewBox="0 0 60 60" fill="none" xmlns="http://www.w3.org/2000/svg">
<rect opacity="0.1" width="60" height="60" rx="24" fill="#FF3B3B"/>
<path fill-rule="evenodd" clip-rule="evenodd" d="M40.348 30.0013C40.348 31.086 41.2387 31.9685 42.3334 31.9685C42.8854 31.9685 43.3334 32.4124 43.3334 32.9594V36.5278C43.3334 39.5453 40.856 42 37.8107 42H22.1907C19.1454 42 16.6667 39.5453 16.6667 36.5278V32.9594C16.6667 32.4124 17.1147 31.9685 17.6667 31.9685C18.7627 31.9685 19.6534 31.086 19.6534 30.0013C19.6534 28.9444 18.7987 28.1491 17.6667 28.1491C17.4014 28.1491 17.148 28.0447 16.96 27.8584C16.772 27.6721 16.6667 27.4198 16.6667 27.1582L16.6694 23.4735C16.6694 20.456 19.1467 18 22.192 18H37.808C40.8534 18 43.332 20.456 43.332 23.4735L43.3334 27.0433C43.3334 27.3049 43.228 27.5585 43.0414 27.7435C42.8534 27.9298 42.6 28.0341 42.3334 28.0341C41.2387 28.0341 40.348 28.9167 40.348 30.0013ZM33.0027 30.8641L34.5747 29.3474C34.848 29.0858 34.9427 28.7 34.824 28.3433C34.7067 27.9866 34.4 27.7329 34.0294 27.6814L31.8574 27.367L30.8854 25.417C30.7187 25.0814 30.38 24.8726 30.0027 24.8713H30C29.624 24.8713 29.2854 25.0801 29.116 25.4156L28.144 27.367L25.976 27.6801C25.6014 27.7329 25.2947 27.9866 25.176 28.3433C25.0587 28.7 25.1534 29.0858 25.4254 29.3474L26.9974 30.8641L26.6267 33.0083C26.5627 33.3782 26.7134 33.7455 27.02 33.9661C27.1934 34.089 27.3947 34.1524 27.5987 34.1524C27.7547 34.1524 27.912 34.1141 28.056 34.0388L30 33.0268L31.94 34.0361C32.276 34.2145 32.6747 34.1868 32.98 33.9648C33.288 33.7455 33.4387 33.3782 33.3747 33.0083L33.0027 30.8641Z" fill="url(#paint0_linear_1_536)"/>
<defs>
<linearGradient id="paint0_linear_1_536" x1="30" y1="18" x2="30" y2="42" gradientUnits="userSpaceOnUse">
<stop stop-color="#FF6363"/>
<stop offset="1" stop-color="#FF3C3C"/>
</linearGradient>
</defs>
</svg>
