<svg width="40" height="40" viewBox="0 0 40 40" fill="none" xmlns="http://www.w3.org/2000/svg">
<circle opacity="0.1" cx="20" cy="20" r="20" fill="#16A853"/>
<path fill-rule="evenodd" clip-rule="evenodd" d="M15.5462 11.2779C15.7124 11.3979 15.9804 11.6734 15.9804 11.6734C17.0208 12.6486 18.5879 15.0739 19.0911 16.3044C19.1016 16.3044 19.4001 17.0361 19.4118 17.3841V17.4304C19.4118 17.9637 19.1133 18.4626 18.6335 18.7179C18.4357 18.8232 17.9546 18.9211 17.7224 18.9683C17.6456 18.984 17.596 18.9941 17.5931 18.997C16.9073 19.1016 15.8551 19.1704 14.7 19.1704C13.4876 19.1704 12.3898 19.1016 11.7145 18.9733C11.7028 18.9733 11.0861 18.8462 10.8801 18.7642C10.5828 18.6372 10.3312 18.4044 10.1709 18.1145C10.0562 17.8829 10 17.6383 10 17.3841C10.0105 17.1168 10.1826 16.618 10.2622 16.4208C10.7654 15.1203 12.412 12.6367 13.4185 11.6853C13.5231 11.5792 13.6421 11.4681 13.7248 11.3907C13.769 11.3494 13.8029 11.3178 13.8188 11.3017C14.0704 11.1045 14.3794 11 14.7117 11C15.0078 11 15.3051 11.0926 15.5462 11.2779ZM26.2286 18.1618C26.2286 18.6856 25.8108 19.1096 25.2947 19.1096C24.7786 19.1096 24.3608 18.6856 24.3608 18.1618L24.1033 13.583C24.1033 12.9154 24.637 12.375 25.2947 12.375C25.9524 12.375 26.4849 12.9154 26.4849 13.583L26.2286 18.1618ZM29.1199 21.2356C29.4172 21.3639 29.6688 21.5955 29.8291 21.8853C29.9438 22.1169 30 22.3616 30 22.617C29.9895 22.883 29.8174 23.3831 29.7367 23.5802C29.2346 24.8797 27.5868 27.3633 26.5815 28.3158C26.4787 28.4194 26.3619 28.5284 26.2793 28.6055L26.2792 28.6055C26.2331 28.6486 26.1976 28.6817 26.1812 28.6983C25.9284 28.8955 25.6206 29 25.2894 29C24.991 29 24.6937 28.9074 24.4538 28.7209C24.2876 28.6021 24.0196 28.3265 24.0196 28.3265C22.978 27.3526 21.4121 24.926 20.9089 23.6954C20.8972 23.6954 20.5999 22.965 20.5882 22.617V22.5706C20.5882 22.0361 20.8855 21.5373 21.3665 21.2819C21.5639 21.1777 22.0435 21.0796 22.2762 21.0319L22.2762 21.0319C22.3539 21.016 22.404 21.0058 22.4069 21.0028C23.0927 20.8983 24.1449 20.8294 25.3 20.8294C26.5124 20.8294 27.6102 20.8983 28.2855 21.0265C28.296 21.0265 28.9139 21.1536 29.1199 21.2356ZM14.7055 20.8905C14.1894 20.8905 13.7716 21.3146 13.7716 21.8383L13.5141 26.4171C13.5141 27.0846 14.0478 27.625 14.7055 27.625C15.3633 27.625 15.8958 27.0846 15.8958 26.4171L15.6395 21.8383C15.6395 21.3146 15.2216 20.8905 14.7055 20.8905Z" fill="url(#paint0_linear_36_287)"/>
<defs>
<linearGradient id="paint0_linear_36_287" x1="20" y1="11" x2="20" y2="29" gradientUnits="userSpaceOnUse">
<stop stop-color="#32D778"/>
<stop offset="1" stop-color="#16A853"/>
</linearGradient>
</defs>
</svg>
