<svg width="40" height="40" viewBox="0 0 40 40" fill="none" xmlns="http://www.w3.org/2000/svg">
<circle opacity="0.1" cx="20" cy="20" r="20" fill="#FFA654"/>
<path fill-rule="evenodd" clip-rule="evenodd" d="M25.3903 16.88V15.3C25.3903 12.38 22.9719 10 20.0149 10H19.9845C17.0275 10 14.6091 12.361 14.5989 15.3V16.88C15.0765 16.721 15.5846 16.63 16.113 16.63H16.1231V15.28C16.1333 13.191 17.8607 11.5 19.9946 11.5H20.0048C22.1387 11.5 23.8661 13.21 23.8661 15.3V16.63H23.8763C24.3861 16.63 24.8865 16.7147 25.341 16.8635C24.8866 16.7148 24.3863 16.6301 23.8766 16.6301H16.1133C15.5849 16.6301 15.0768 16.7211 14.5992 16.8801C12.8007 17.5001 11.5 19.1811 11.5 21.17V25.46C11.5 27.96 13.5729 30 16.1133 30H23.8766C26.4271 30 28.5 27.96 28.5 25.46V21.17C28.5 19.1811 27.1993 17.5001 25.3906 16.8801C25.3905 16.88 25.3904 16.88 25.3903 16.88ZM20.8891 24.42C20.8891 24.91 20.4928 25.3 19.9949 25.3C19.5072 25.3 19.1109 24.91 19.1109 24.42V22.2C19.1109 21.721 19.5072 21.33 19.9949 21.33C20.4928 21.33 20.8891 21.721 20.8891 22.2V24.42Z" fill="url(#paint0_linear_36_278)"/>
<defs>
<linearGradient id="paint0_linear_36_278" x1="20" y1="10" x2="20" y2="30" gradientUnits="userSpaceOnUse">
<stop stop-color="#FFBF84"/>
<stop offset="1" stop-color="#FFA654"/>
</linearGradient>
</defs>
</svg>
