<svg width="40" height="40" viewBox="0 0 40 40" fill="none" xmlns="http://www.w3.org/2000/svg">
<circle cx="20" cy="20" r="20" fill="url(#paint0_linear_36_492)"/>
<g clip-path="url(#clip0_36_492)">
<path d="M27.5286 13.3333C27.5286 14.8291 26.3162 16.0417 24.8203 16.0417C23.3245 16.0417 22.1121 14.8291 22.1121 13.3333C22.1121 11.8376 23.3245 10.625 24.8203 10.625C26.3162 10.625 27.5286 11.8376 27.5286 13.3333Z" fill="white"/>
<path d="M24.8203 16.6667C22.982 16.6667 21.4871 15.1717 21.4871 13.3333C21.4871 11.4951 22.982 10 24.8203 10C26.6587 10 28.1536 11.4951 28.1536 13.3333C28.1536 15.1717 26.6587 16.6667 24.8203 16.6667ZM24.8203 11.25C23.6712 11.25 22.7371 12.1851 22.7371 13.3333C22.7371 14.4817 23.6712 15.4167 24.8203 15.4167C25.9695 15.4167 26.9036 14.4817 26.9036 13.3333C26.9036 12.1851 25.9695 11.25 24.8203 11.25Z" fill="white"/>
<path d="M27.5286 26.6667C27.5286 28.1624 26.3162 29.375 24.8203 29.375C23.3245 29.375 22.1121 28.1624 22.1121 26.6667C22.1121 25.1709 23.3245 23.9583 24.8203 23.9583C26.3162 23.9583 27.5286 25.1709 27.5286 26.6667Z" fill="white"/>
<path d="M24.8203 30C22.982 30 21.4871 28.5049 21.4871 26.6667C21.4871 24.8283 22.982 23.3333 24.8203 23.3333C26.6587 23.3333 28.1536 24.8283 28.1536 26.6667C28.1536 28.5049 26.6587 30 24.8203 30ZM24.8203 24.5833C23.6712 24.5833 22.7371 25.5183 22.7371 26.6667C22.7371 27.8149 23.6712 28.75 24.8203 28.75C25.9695 28.75 26.9036 27.8149 26.9036 26.6667C26.9036 25.5183 25.9695 24.5833 24.8203 24.5833Z" fill="white"/>
<path d="M15.862 20C15.862 21.4958 14.6494 22.7083 13.1536 22.7083C11.6579 22.7083 10.4453 21.4958 10.4453 20C10.4453 18.5042 11.6579 17.2917 13.1536 17.2917C14.6494 17.2917 15.862 18.5042 15.862 20Z" fill="white"/>
<path d="M13.1536 23.3333C11.3154 23.3333 9.82031 21.8384 9.82031 20C9.82031 18.1616 11.3154 16.6667 13.1536 16.6667C14.992 16.6667 16.487 18.1616 16.487 20C16.487 21.8384 14.992 23.3333 13.1536 23.3333ZM13.1536 17.9167C12.0045 17.9167 11.0703 18.8516 11.0703 20C11.0703 21.1484 12.0045 22.0833 13.1536 22.0833C14.3029 22.0833 15.237 21.1484 15.237 20C15.237 18.8516 14.3029 17.9167 13.1536 17.9167Z" fill="white"/>
<path d="M15.1213 19.6001C14.8312 19.6001 14.5495 19.4492 14.3962 19.1792C14.1687 18.7801 14.3087 18.2709 14.7079 18.0425L22.4403 13.6342C22.8395 13.405 23.3487 13.5451 23.5771 13.9458C23.8046 14.3449 23.6645 14.8541 23.2653 15.0826L15.5328 19.4908C15.4028 19.565 15.2612 19.6001 15.1213 19.6001Z" fill="white"/>
<path d="M22.8529 26.4751C22.7128 26.4751 22.5712 26.44 22.4412 26.3659L14.7087 21.9576C14.3095 21.7301 14.1696 21.2209 14.3971 20.8208C14.6237 20.4209 15.1336 20.2801 15.5337 20.5092L23.2662 24.9175C23.6654 25.145 23.8053 25.6542 23.5778 26.0543C23.4237 26.3242 23.142 26.4751 22.8529 26.4751Z" fill="white"/>
</g>
<defs>
<linearGradient id="paint0_linear_36_492" x1="20" y1="0" x2="20" y2="40" gradientUnits="userSpaceOnUse">
<stop stop-color="#2EA7FF"/>
<stop offset="1" stop-color="#2E68FF"/>
</linearGradient>
<clipPath id="clip0_36_492">
<rect width="20" height="20" fill="white" transform="translate(9 10)"/>
</clipPath>
</defs>
</svg>
