<svg width="40" height="40" viewBox="0 0 40 40" fill="none" xmlns="http://www.w3.org/2000/svg">
<circle opacity="0.1" cx="20" cy="20" r="20" fill="#5C3CA1"/>
<path fill-rule="evenodd" clip-rule="evenodd" d="M19.7281 29.9137C19.8388 29.9715 19.9627 30.0009 20.0865 30C20.2103 29.999 20.3331 29.9686 20.4449 29.9097L24.0128 28.0025C25.0245 27.4631 25.8168 26.8601 26.435 26.1579C27.779 24.6282 28.5129 22.6758 28.4998 20.6626L28.4575 14.022C28.4535 13.2571 27.9511 12.5746 27.2082 12.3265L20.5707 10.0996C20.1711 9.96424 19.7331 9.96718 19.3405 10.1064L12.7282 12.4128C11.9893 12.6707 11.496 13.3581 11.5 14.124L11.5423 20.7597C11.5554 22.7758 12.3145 24.7194 13.6806 26.2335C14.3048 26.9258 15.1041 27.52 16.127 28.0505L19.7281 29.9137ZM18.7836 22.1089C18.9326 22.2521 19.1259 22.3227 19.3192 22.3207C19.5125 22.3198 19.7047 22.2472 19.8517 22.1021L23.7508 18.2581C24.0438 17.9688 24.0408 17.504 23.7448 17.2186C23.4478 16.9333 22.9696 16.9353 22.6766 17.2245L19.3081 20.5449L17.9289 19.2191C17.6319 18.9337 17.1547 18.9367 16.8607 19.2259C16.5677 19.5152 16.5708 19.98 16.8678 20.2654L18.7836 22.1089Z" fill="#5C3CA2"/>
</svg>
