<svg width="40" height="40" viewBox="0 0 40 40" fill="none" xmlns="http://www.w3.org/2000/svg">
<g clip-path="url(#clip0_36_476)">
<path d="M39.1218 20.4391C39.1218 31.2424 30.3642 40 19.5609 40C12.8095 40 6.8571 36.5796 3.34178 31.3772C2.31913 29.8642 0.959882 26.806 0.421247 23.9523C-0.151263 20.918 0.131025 18.1149 0.198163 17.6443C1.55436 8.16497 9.70652 0.878296 19.5609 0.878296C30.3642 0.878296 39.1218 9.63592 39.1218 20.4391Z" fill="white"/>
<path d="M37.1938 2.80609C40.9353 6.54785 40.9353 12.6141 37.1938 16.3556C33.4521 20.097 27.3861 20.097 23.6443 16.3556C19.9029 12.6141 19.9029 6.54785 23.6443 2.80609C27.3861 -0.935363 33.4521 -0.935363 37.1938 2.80609Z" fill="#00B96F"/>
<path d="M37.1938 2.80609C40.6127 6.22498 40.9069 11.5848 38.0773 15.3384C34.3237 18.168 28.9642 17.8738 25.545 14.455C22.1261 11.0358 21.8319 5.67627 24.6615 1.92261C28.4152 -0.906978 33.7747 -0.612789 37.1938 2.80609Z" fill="#54D680"/>
<path d="M39.5874 5.38208L31.7978 13.1717C31.5229 13.4467 31.1621 13.5843 30.802 13.5843C30.4416 13.5843 30.0812 13.447 29.8062 13.1717L25.9281 9.29382C25.3781 8.74359 25.3781 7.85187 25.9281 7.30194C26.478 6.75201 27.3697 6.75201 27.9196 7.30194L30.802 10.1843L37.5962 3.3905C38.1461 2.84058 39.0375 2.84058 39.5877 3.3905C40.1377 3.94043 40.1377 4.83215 39.5874 5.38208Z" fill="#FFE49F"/>
<path d="M39.5873 3.3905C40.1376 3.94042 40.1376 4.83184 39.5876 5.38177L32.8851 12.084C32.6101 12.359 32.2497 12.4966 31.8893 12.4966C31.5289 12.4966 31.1684 12.3593 30.8935 12.084L27.0153 8.20586C26.6662 7.85674 26.5395 7.36999 26.6335 6.92016C27.0834 6.82616 27.5701 6.95281 27.9192 7.30193L30.8016 10.1843L37.5958 3.39019C38.1457 2.84026 39.0374 2.84026 39.5873 3.3905Z" fill="#FFF5F5"/>
<path d="M31.8091 19.7717C31.7395 19.809 31.6965 19.8813 31.6965 19.96C31.6965 20.0388 31.7395 20.1114 31.8091 20.1483C32.312 20.4172 32.6547 20.9466 32.6547 21.557V22.3553C32.6547 22.9654 32.312 23.4952 31.8091 23.7637C31.7395 23.801 31.6965 23.8733 31.6965 23.952C31.6965 24.0308 31.7395 24.1034 31.8091 24.1403C32.312 24.4092 32.6547 24.9387 32.6547 25.549V26.3473C32.6547 26.9574 32.312 27.4872 31.8091 27.7557C31.7395 27.793 31.6965 27.8653 31.6965 27.944C31.6965 28.0228 31.7395 28.0954 31.8091 28.1323C32.312 28.4012 32.6547 28.9307 32.6547 29.541V30.3393C32.6547 31.2213 31.9397 31.936 31.0577 31.936H22.5308C21.329 31.936 20.1599 31.5436 19.2017 30.8185C18.2431 30.0931 17.0743 29.7006 15.8722 29.7006H9.34143V19.3213H15.0067C16.1478 19.3213 17.2018 18.7128 17.7725 17.7246L20.4736 13.046C20.6839 12.6816 20.7944 12.2687 20.7944 11.8481V9.18152C20.7944 8.5202 21.3306 7.98401 21.9922 7.98401C23.5355 7.98401 24.7864 9.23523 24.7864 10.7785V12.2833C24.7864 13.128 24.563 13.9578 24.1391 14.6881L23.6047 15.6082C23.5123 15.7681 23.6273 15.968 23.8119 15.968H31.0577C31.9397 15.968 32.6547 16.683 32.6547 17.565V18.3633C32.6547 18.9734 32.312 19.5032 31.8091 19.7717Z" fill="#FFDFCF"/>
<path d="M22.2754 8.30353V9.90021C22.2754 10.3412 21.918 10.6985 21.4771 10.6985H20.7947V9.18152C20.7947 8.5202 21.3309 7.98401 21.9922 7.98401C22.0667 7.98401 22.1402 7.98767 22.2131 7.99347C22.2531 8.08899 22.2754 8.19366 22.2754 8.30353Z" fill="#FFEEE6"/>
<path d="M26.2674 19.1617C26.2674 18.7207 26.6251 18.3633 27.0657 18.3633H32.6547C32.6547 18.9734 32.312 19.5032 31.8091 19.7717C31.7395 19.809 31.6965 19.8813 31.6965 19.96H27.0657C26.6251 19.96 26.2674 19.6027 26.2674 19.1617ZM31.0577 29.3814H22.5308C21.329 29.3814 20.1599 28.9886 19.2017 28.2635C18.2431 27.5381 17.0743 27.1457 15.8722 27.1457H9.34143V29.7006H15.8722C17.0743 29.7006 18.2431 30.0931 19.2017 30.8185C20.1599 31.5436 21.329 31.936 22.5308 31.936H31.0577C31.9397 31.936 32.6547 31.2213 32.6547 30.3393V29.541C32.6547 29.2166 32.5561 28.916 32.3898 28.6645C32.1039 29.0961 31.6144 29.3814 31.0577 29.3814ZM26.2674 27.1457C26.2674 27.5867 26.6251 27.944 27.0657 27.944H31.6965C31.6965 27.8653 31.7395 27.793 31.8091 27.7557C32.312 27.4872 32.6547 26.9574 32.6547 26.3473H27.0657C26.6251 26.3473 26.2674 26.7047 26.2674 27.1457ZM26.2674 23.1537C26.2674 23.5947 26.6251 23.952 27.0657 23.952H31.6965C31.6965 23.8733 31.7395 23.801 31.8091 23.7637C32.312 23.4952 32.6547 22.9654 32.6547 22.3553H27.0657C26.6251 22.3553 26.2674 22.7127 26.2674 23.1537Z" fill="#FFC9C0"/>
<path d="M12.5348 17.9642V31.058C12.5348 31.7194 11.9986 32.2555 11.3373 32.2555H7.34527C6.79474 32.2555 6.33209 31.8832 6.19201 31.3773H3.34167C1.23199 28.255 0 24.491 0 20.4391C0 19.4904 0.0689697 18.5574 0.199585 17.6447H6.19201C6.33209 17.1387 6.79474 16.7664 7.34527 16.7664H11.3373C11.9986 16.7664 12.5348 17.3026 12.5348 17.9642Z" fill="#FF393A"/>
<path d="M0 20.4391C0 19.4904 0.0674438 18.5574 0.198059 17.6447H3.75244V27.4405C3.75244 28.1018 3.21625 28.638 2.55493 28.638H1.79596C0.643005 26.1441 0 23.367 0 20.4391ZM6.14776 17.9642V28.3432C6.14776 29.0048 6.68396 29.541 7.34527 29.541H11.3373C11.9986 29.541 12.5348 29.0048 12.5348 28.3432V17.9642C12.5348 17.3026 11.9986 16.7664 11.3373 16.7664H7.34527C6.68396 16.7664 6.14776 17.3026 6.14776 17.9642Z" fill="#FF6466"/>
</g>
<defs>
<clipPath id="clip0_36_476">
<rect width="40" height="40" fill="white"/>
</clipPath>
</defs>
</svg>
