<svg width="252" height="132" viewBox="0 0 252 132" fill="none" xmlns="http://www.w3.org/2000/svg">
<g filter="url(#filter0_d_1_906)">
<rect x="6" y="6" width="240" height="120" rx="16" fill="white"/>
</g>
<rect x="6" y="6" width="240" height="120" rx="16" fill="white"/>
<rect x="162" y="90" width="68" height="22" rx="11" fill="#FF6D3A"/>
<path d="M175.009 104.157H178.715V105H173.972V97.1797H175.009V104.157ZM183.323 105C183.266 104.885 183.219 104.681 183.184 104.388C182.722 104.868 182.17 105.107 181.529 105.107C180.956 105.107 180.486 104.946 180.117 104.624C179.751 104.298 179.569 103.886 179.569 103.389C179.569 102.784 179.798 102.314 180.256 101.981C180.718 101.645 181.366 101.477 182.201 101.477H183.167V101.02C183.167 100.673 183.064 100.397 182.856 100.193C182.648 99.9852 182.342 99.8813 181.938 99.8813C181.583 99.8813 181.286 99.9709 181.046 100.15C180.806 100.329 180.686 100.546 180.686 100.8H179.687C179.687 100.51 179.789 100.23 179.993 99.9619C180.201 99.6898 180.48 99.4749 180.831 99.3174C181.186 99.1598 181.574 99.0811 181.997 99.0811C182.666 99.0811 183.191 99.2493 183.57 99.5859C183.95 99.9189 184.147 100.379 184.161 100.966V103.641C184.161 104.175 184.229 104.599 184.365 104.914V105H183.323ZM181.674 104.243C181.986 104.243 182.281 104.162 182.561 104.001C182.84 103.84 183.042 103.63 183.167 103.373V102.18H182.389C181.171 102.18 180.562 102.536 180.562 103.249C180.562 103.561 180.666 103.804 180.874 103.979C181.082 104.155 181.348 104.243 181.674 104.243ZM182.673 98.3291H181.819L180.434 96.75H181.631L182.673 98.3291ZM186.653 99.1885L186.68 99.833C187.106 99.3317 187.681 99.0811 188.404 99.0811C189.217 99.0811 189.77 99.3926 190.064 100.016C190.257 99.7363 190.508 99.5107 190.816 99.3389C191.127 99.167 191.494 99.0811 191.917 99.0811C193.192 99.0811 193.84 99.756 193.861 101.106V105H192.868V101.165C192.868 100.75 192.773 100.44 192.583 100.236C192.393 100.028 192.075 99.9243 191.627 99.9243C191.258 99.9243 190.952 100.035 190.708 100.257C190.465 100.476 190.324 100.771 190.284 101.144V105H189.285V101.192C189.285 100.347 188.872 99.9243 188.044 99.9243C187.393 99.9243 186.947 100.202 186.707 100.757V105H185.713V99.1885H186.653ZM200.011 103.652L201.451 99.1885H202.466L200.382 105H199.625L197.519 99.1885H198.534L200.011 103.652ZM204.501 105H203.508V99.1885H204.501V105ZM203.427 97.647C203.427 97.4858 203.476 97.3498 203.572 97.2388C203.673 97.1278 203.819 97.0723 204.013 97.0723C204.206 97.0723 204.353 97.1278 204.453 97.2388C204.553 97.3498 204.604 97.4858 204.604 97.647C204.604 97.8081 204.553 97.9424 204.453 98.0498C204.353 98.1572 204.206 98.2109 204.013 98.2109C203.819 98.2109 203.673 98.1572 203.572 98.0498C203.476 97.9424 203.427 97.8081 203.427 97.647ZM208.508 105.107C207.721 105.107 207.08 104.85 206.585 104.334C206.091 103.815 205.844 103.122 205.844 102.255V102.073C205.844 101.496 205.953 100.982 206.172 100.531C206.394 100.076 206.702 99.722 207.096 99.4678C207.493 99.21 207.923 99.0811 208.385 99.0811C209.14 99.0811 209.728 99.3299 210.146 99.8276C210.565 100.325 210.775 101.038 210.775 101.965V102.379H206.838C206.852 102.952 207.019 103.416 207.337 103.77C207.66 104.121 208.068 104.296 208.562 104.296C208.913 104.296 209.21 104.225 209.454 104.082C209.697 103.938 209.91 103.749 210.093 103.512L210.7 103.985C210.213 104.733 209.482 105.107 208.508 105.107ZM208.385 99.8975C207.984 99.8975 207.647 100.044 207.375 100.338C207.103 100.628 206.935 101.036 206.87 101.562H209.781V101.487C209.753 100.982 209.617 100.592 209.373 100.316C209.13 100.037 208.8 99.8975 208.385 99.8975ZM210.007 98.2217V98.2754H209.185L208.379 97.3623L207.579 98.2754H206.757V98.2109L208.079 96.75H208.68L210.007 98.2217ZM207.772 106.316C207.772 106.155 207.821 106.019 207.917 105.908C208.018 105.797 208.165 105.741 208.358 105.741C208.551 105.741 208.698 105.797 208.798 105.908C208.899 106.019 208.949 106.155 208.949 106.316C208.949 106.477 208.899 106.611 208.798 106.719C208.698 106.826 208.551 106.88 208.358 106.88C208.165 106.88 208.018 106.826 207.917 106.719C207.821 106.611 207.772 106.477 207.772 106.316ZM214.261 104.296C214.615 104.296 214.925 104.189 215.19 103.974C215.455 103.759 215.602 103.491 215.63 103.168H216.57C216.552 103.501 216.438 103.818 216.227 104.119C216.015 104.42 215.732 104.66 215.378 104.839C215.027 105.018 214.655 105.107 214.261 105.107C213.469 105.107 212.839 104.844 212.37 104.318C211.905 103.788 211.672 103.065 211.672 102.148V101.981C211.672 101.416 211.776 100.913 211.983 100.472C212.191 100.032 212.488 99.6898 212.875 99.4463C213.265 99.2028 213.725 99.0811 214.255 99.0811C214.907 99.0811 215.448 99.2762 215.877 99.6665C216.311 100.057 216.542 100.563 216.57 101.187H215.63C215.602 100.811 215.458 100.503 215.201 100.263C214.946 100.019 214.631 99.8975 214.255 99.8975C213.75 99.8975 213.358 100.08 213.079 100.445C212.803 100.807 212.666 101.332 212.666 102.019V102.207C212.666 102.877 212.803 103.392 213.079 103.754C213.355 104.116 213.749 104.296 214.261 104.296Z" fill="white"/>
<g clip-path="url(#clip0_1_906)">
<path d="M69.1348 37.4861H26.8143C25.7695 37.4861 24.9226 38.333 24.9226 39.3778V44.4593H71.0266V39.3778C71.0265 38.3331 70.1796 37.4861 69.1348 37.4861Z" fill="#FFB125"/>
<path d="M53.7704 26.9806L49.9379 65.7788C49.8416 66.7535 48.9735 67.4655 47.9989 67.3692L28.58 65.4509C27.6053 65.3546 26.8933 64.4865 26.9896 63.5119L30.8221 24.7137C30.9184 23.7391 31.7865 23.0271 32.7612 23.1234L52.1801 25.0416C53.1546 25.1378 53.8666 26.0059 53.7704 26.9806Z" fill="#B6FA4C"/>
<path d="M52.1801 25.0416L32.7612 23.1233C31.7866 23.027 30.9185 23.739 30.8222 24.7136L30.4784 28.1945C30.7697 28.0466 31.1045 27.9758 31.4537 28.0103L50.8726 29.9286C51.8473 30.0248 52.5593 30.893 52.463 31.8676L48.9743 67.1851C49.4959 66.9201 49.8762 66.4043 49.9379 65.779L53.7704 26.9807C53.8668 26.006 53.1547 25.1378 52.1801 25.0416Z" fill="#A8E83A"/>
<path d="M32.8804 30.2151L30.0845 58.5194C30.0445 58.9245 30.2352 59.3194 30.5807 59.5348C31.5328 60.1283 32.27 61.0188 32.6751 62.0643C32.8208 62.4401 33.1686 62.6992 33.5696 62.7389L43.6363 63.7333C44.0373 63.7729 44.4292 63.5868 44.6454 63.2467C45.2472 62.3008 46.1444 61.5717 47.1943 61.1759C47.5752 61.0322 47.8395 60.6824 47.8795 60.2773L50.6754 31.9729C50.7153 31.5678 50.5246 31.173 50.1791 30.9576C49.2271 30.364 48.4898 29.4735 48.0847 28.428C47.9391 28.0523 47.5912 27.7931 47.1903 27.7534L37.1236 26.7591C36.7226 26.7194 36.3307 26.9056 36.1144 27.2456C35.5126 28.1916 34.6154 28.9207 33.5656 29.3165C33.1847 29.4601 32.9204 29.81 32.8804 30.2151Z" fill="#77DD00"/>
<path d="M50.1793 30.9576C49.2272 30.364 48.49 29.4735 48.0849 28.428C47.9392 28.0522 47.5914 27.7931 47.1904 27.7534L37.1237 26.7591C36.7227 26.7194 36.3308 26.9056 36.1145 27.2456C35.5127 28.1916 34.6155 28.9207 33.5656 29.3165C33.1847 29.4601 32.9204 29.81 32.8804 30.2151L32.774 31.2926L45.8176 32.5408C46.2186 32.5804 46.5666 32.8396 46.7121 33.2154C47.1172 34.2608 47.8544 35.1513 48.8065 35.7449C49.152 35.9603 49.3427 36.3552 49.3027 36.7603L46.8778 61.3085C46.9818 61.2613 47.087 61.2165 47.1943 61.176C47.5753 61.0323 47.8396 60.6825 47.8795 60.2774L50.6754 31.973C50.7155 31.5678 50.5247 31.173 50.1793 30.9576Z" fill="#73CC00"/>
<path d="M70.2355 32.7609L48.2802 64.9782C47.7287 65.7875 46.6255 65.9965 45.8163 65.445L29.6911 54.4561C28.8819 53.9046 28.6728 52.8014 29.2243 51.9922L51.1798 19.7749C51.7313 18.9656 52.8345 18.7566 53.6437 19.3081L69.7689 30.2969C70.5781 30.8484 70.787 31.9515 70.2355 32.7609Z" fill="#B6FA4C"/>
<path d="M69.7689 30.2969L53.6438 19.308C52.8345 18.7566 51.7313 18.9655 51.1798 19.7749L49.3018 22.5306C49.4648 22.5816 49.6232 22.6567 49.7717 22.7578L65.8968 33.7467C66.7061 34.2982 66.9151 35.4014 66.3636 36.2107L46.2863 65.6723C47.0119 65.8993 47.83 65.6392 48.2804 64.9783L70.2357 32.7609C70.7871 31.9515 70.5782 30.8484 69.7689 30.2969Z" fill="#A8E83A"/>
<path d="M50.3502 25.59L34.3332 49.0934C34.1039 49.4298 34.0821 49.8677 34.2821 50.2223C34.8334 51.1995 35.0537 52.3343 34.9083 53.4462C34.8561 53.8457 35.0372 54.2399 35.3701 54.4668L43.7294 60.1634C44.0623 60.3903 44.4955 60.4147 44.8483 60.2199C45.8299 59.678 46.9666 59.468 48.0777 59.6236C48.4809 59.68 48.8806 59.4997 49.1099 59.1632L65.1269 35.6599C65.3562 35.3235 65.3779 34.8856 65.1778 34.531C64.6265 33.5538 64.4062 32.419 64.5516 31.3072C64.6038 30.9077 64.4228 30.5135 64.0898 30.2866L55.7306 24.5899C55.3976 24.363 54.9644 24.3386 54.6116 24.5334C53.63 25.0753 52.4933 25.2853 51.3822 25.1297C50.9791 25.0731 50.5794 25.2535 50.3502 25.59Z" fill="#77DD00"/>
<path d="M65.1778 34.5309C64.6265 33.5537 64.4063 32.4188 64.5516 31.3071C64.6038 30.9076 64.4228 30.5133 64.0898 30.2864L55.7305 24.5898C55.3976 24.3629 54.9644 24.3385 54.6116 24.5333C53.6301 25.0752 52.4933 25.2851 51.3822 25.1295C50.979 25.0731 50.5793 25.2534 50.35 25.5898L49.6825 26.5693L60.1296 33.6115C60.4626 33.8385 60.6438 34.2326 60.5915 34.6321C60.4462 35.7439 60.6665 36.8787 61.2177 37.8559C61.4176 38.2104 61.3959 38.6485 61.1666 38.9848L47.1321 59.5796C47.4467 59.5658 47.7632 59.5795 48.0778 59.6236C48.481 59.6801 48.8806 59.4996 49.1099 59.1632L65.1269 35.6598C65.3561 35.3233 65.3779 34.8854 65.1778 34.5309Z" fill="#73CC00"/>
<path d="M52.183 45.9359C55.3511 45.9359 57.9194 43.3676 57.9194 40.1994C57.9194 37.0313 55.3511 34.463 52.183 34.463C49.0148 34.463 46.4465 37.0313 46.4465 40.1994C46.4465 43.3676 49.0148 45.9359 52.183 45.9359Z" fill="#B6FA4C"/>
<path d="M69.7902 73H25.5975C24.0907 73 22.8692 71.7786 22.8692 70.2717V43.2725C22.8692 41.7658 24.0906 40.5442 25.5975 40.5442H69.7902C71.297 40.5442 72.5185 41.7657 72.5185 43.2725V70.2717C72.5185 71.7786 71.2971 73 69.7902 73Z" fill="#FFB125"/>
<path d="M69.7902 40.5442H64.8269C66.3336 40.5442 67.5551 41.7658 67.5551 43.2725V70.2717C67.5551 71.7785 66.3336 73 64.8269 73H69.7902C71.297 73 72.5185 71.7786 72.5185 70.2717V43.2725C72.5185 41.7658 71.297 40.5442 69.7902 40.5442Z" fill="#FF901D"/>
<path d="M74.1424 51.5569H64.1959C61.3156 51.5569 58.9808 53.8918 58.9808 56.772C58.9808 59.6523 61.3156 61.9871 64.1959 61.9871H74.1424C74.6883 61.9871 75.1309 61.5446 75.1309 60.9987V52.5454C75.1309 51.9996 74.6883 51.5569 74.1424 51.5569Z" fill="#FF6D3A"/>
<path d="M74.1424 51.5569H69.1614C69.7073 51.5569 70.1499 51.9995 70.1499 52.5454V59.6657C70.1499 60.2479 69.6779 60.7198 69.0957 60.7198H64.1958C61.5301 60.7198 59.3331 58.7195 59.0203 56.1383C58.9951 56.3461 58.9807 56.5573 58.9807 56.7719C58.9807 59.6522 61.3155 61.987 64.1958 61.987H69.1613H74.1423C74.6882 61.987 75.1308 61.5445 75.1308 60.9986V59.7314V52.5454C75.1309 51.9996 74.6883 51.5569 74.1424 51.5569Z" fill="#ED5729"/>
<path d="M69.7902 40.5442H25.5975C24.0907 40.5442 22.8692 41.7658 22.8692 43.2725V46.2623H72.5185V43.2725C72.5185 41.7658 71.2971 40.5442 69.7902 40.5442Z" fill="#FF6D3A"/>
<path d="M72.0525 41.747C71.9545 41.6019 71.8428 41.4667 71.7194 41.3433C71.7179 41.3418 71.7164 41.3406 71.7149 41.3391C71.5927 41.2174 71.4591 41.1071 71.3155 41.0101C71.2792 40.9857 71.2423 40.9619 71.2048 40.9392C71.149 40.9053 71.0915 40.874 71.0332 40.844C70.9954 40.8246 70.9571 40.8062 70.9183 40.7884C70.5744 40.6319 70.1926 40.5441 69.7901 40.5441H64.8271C66.3337 40.5442 67.555 41.7656 67.555 43.2723V46.2621H72.5184V43.2723C72.5184 42.8014 72.3991 42.3585 72.1891 41.9719C72.1473 41.8947 72.1016 41.8196 72.0525 41.747Z" fill="#ED5729"/>
<path d="M25.5975 72.9998H69.7902C71.297 72.9998 72.5185 71.7782 72.5185 70.2715V67.2817H22.8692V70.2715C22.8692 71.7782 24.0906 72.9998 25.5975 72.9998Z" fill="#FF6D3A"/>
<path d="M67.5551 67.2817V70.2715C67.5551 70.2731 67.5551 70.2747 67.5551 70.2761C67.5547 70.5281 67.3438 70.7292 67.0918 70.7292H25.5975C24.0907 70.7292 22.8692 69.5077 22.8692 68.001V70.2714C22.8692 71.7783 24.0906 72.9998 25.5975 72.9998H64.827H69.7903C69.8442 72.9998 69.8976 72.9978 69.9506 72.9947C69.9672 72.9938 69.9837 72.9922 70.0001 72.9909C70.0371 72.9881 70.0739 72.9847 70.1105 72.9804C70.1287 72.9783 70.1468 72.9759 70.165 72.9735C70.2013 72.9686 70.2374 72.9626 70.2733 72.9563C70.2892 72.9535 70.3052 72.9509 70.321 72.9478C70.3718 72.9378 70.4222 72.9268 70.4719 72.9139C70.4719 72.9139 70.472 72.9139 70.4721 72.9139C70.4939 72.9083 70.5152 72.9017 70.5368 72.8956C70.6447 72.8649 70.7502 72.8286 70.8523 72.7855C70.8931 72.7682 70.9334 72.75 70.9732 72.7308C71.0129 72.7116 71.0522 72.6916 71.0908 72.6706L71.0909 72.6705C71.1681 72.6285 71.2431 72.583 71.3156 72.534L71.3157 72.5339L71.3158 72.5338C71.3776 72.492 71.4371 72.4474 71.495 72.4009C71.4978 72.3987 71.5006 72.3966 71.5033 72.3944C71.562 72.3469 71.6185 72.2969 71.6732 72.2448C71.7374 72.1834 71.7987 72.1191 71.8567 72.0518V72.0517C71.9474 71.9465 72.0304 71.8343 72.1044 71.716C72.1064 71.7128 72.1085 71.7097 72.1105 71.7065C72.1377 71.6625 72.1641 71.618 72.1889 71.5725C72.1889 71.5724 72.189 71.5723 72.1891 71.572V71.5719C72.255 71.4505 72.3118 71.3233 72.3589 71.1916C72.3643 71.1766 72.3691 71.1613 72.3743 71.1463C72.3857 71.1126 72.3966 71.0787 72.4067 71.0445C72.4118 71.0271 72.4167 71.0097 72.4216 70.9922C72.431 70.9578 72.4396 70.9231 72.4476 70.8881C72.4513 70.8721 72.4553 70.8562 72.4587 70.8402C72.4693 70.7899 72.479 70.7392 72.4869 70.6879C72.4869 70.6876 72.487 70.6874 72.487 70.6871C72.487 70.6869 72.487 70.6867 72.487 70.6866C72.4961 70.6267 72.5026 70.5659 72.5077 70.5047C72.509 70.4892 72.5102 70.4737 72.5113 70.4582C72.5155 70.3965 72.5184 70.3344 72.5184 70.2715V68.0011V67.2818L67.5551 67.2817Z" fill="#ED5729"/>
<path d="M64.3816 59.1938C65.7189 59.1938 66.8031 58.1097 66.8031 56.7724C66.8031 55.435 65.7189 54.3509 64.3816 54.3509C63.0443 54.3509 61.9601 55.435 61.9601 56.7724C61.9601 58.1097 63.0443 59.1938 64.3816 59.1938Z" fill="#F2F2F2"/>
</g>
<path d="M104.039 39.6133H108.492V42.2148H104.039V47.2891H101.273V42.2148H96.7969V39.6133H101.273V34.8672H104.039V39.6133ZM119.52 31.8555V34.2109H119.168C117.574 34.2344 116.301 34.6719 115.348 35.5234C114.395 36.375 113.828 37.582 113.648 39.1445C114.562 38.1836 115.73 37.7031 117.152 37.7031C118.66 37.7031 119.848 38.2344 120.715 39.2969C121.59 40.3594 122.027 41.7305 122.027 43.4102C122.027 45.1445 121.516 46.5508 120.492 47.6289C119.477 48.6992 118.141 49.2344 116.484 49.2344C114.781 49.2344 113.398 48.6055 112.336 47.3477C111.281 46.0898 110.754 44.4414 110.754 42.4023V41.4297C110.754 38.4375 111.48 36.0938 112.934 34.3984C114.395 32.7031 116.492 31.8555 119.227 31.8555H119.52ZM116.461 40C115.836 40 115.262 40.1758 114.738 40.5273C114.223 40.8789 113.844 41.3477 113.602 41.9336V42.8008C113.602 44.0664 113.867 45.0742 114.398 45.8242C114.93 46.5664 115.617 46.9375 116.461 46.9375C117.305 46.9375 117.973 46.6211 118.465 45.9883C118.957 45.3555 119.203 44.5234 119.203 43.4922C119.203 42.4609 118.953 41.6211 118.453 40.9727C117.953 40.3242 117.289 40 116.461 40ZM135.422 41.8164C135.422 44.2695 134.961 46.1211 134.039 47.3711C133.125 48.6133 131.73 49.2344 129.855 49.2344C128.012 49.2344 126.621 48.6289 125.684 47.418C124.754 46.1992 124.277 44.3984 124.254 42.0156V39.0625C124.254 36.6094 124.711 34.7695 125.625 33.543C126.547 32.3164 127.949 31.7031 129.832 31.7031C131.699 31.7031 133.09 32.3008 134.004 33.4961C134.926 34.6914 135.398 36.4805 135.422 38.8633V41.8164ZM132.574 38.6289C132.574 37.0273 132.355 35.8555 131.918 35.1133C131.48 34.3633 130.785 33.9883 129.832 33.9883C128.902 33.9883 128.219 34.3438 127.781 35.0547C127.344 35.7578 127.113 36.8594 127.09 38.3594V42.2266C127.09 43.8203 127.312 45.0078 127.758 45.7891C128.203 46.5703 128.902 46.9609 129.855 46.9609C130.77 46.9609 131.445 46.6016 131.883 45.8828C132.32 45.1562 132.551 44.0234 132.574 42.4844V38.6289ZM149.062 41.8164C149.062 44.2695 148.602 46.1211 147.68 47.3711C146.766 48.6133 145.371 49.2344 143.496 49.2344C141.652 49.2344 140.262 48.6289 139.324 47.418C138.395 46.1992 137.918 44.3984 137.895 42.0156V39.0625C137.895 36.6094 138.352 34.7695 139.266 33.543C140.188 32.3164 141.59 31.7031 143.473 31.7031C145.34 31.7031 146.73 32.3008 147.645 33.4961C148.566 34.6914 149.039 36.4805 149.062 38.8633V41.8164ZM146.215 38.6289C146.215 37.0273 145.996 35.8555 145.559 35.1133C145.121 34.3633 144.426 33.9883 143.473 33.9883C142.543 33.9883 141.859 34.3438 141.422 35.0547C140.984 35.7578 140.754 36.8594 140.73 38.3594V42.2266C140.73 43.8203 140.953 45.0078 141.398 45.7891C141.844 46.5703 142.543 46.9609 143.496 46.9609C144.41 46.9609 145.086 46.6016 145.523 45.8828C145.961 45.1562 146.191 44.0234 146.215 42.4844V38.6289ZM162.211 45.3906L164.895 36.3203H167.836L163.441 49H160.969L156.539 36.3203H159.492L162.211 45.3906ZM172.266 36.3203L172.348 37.7852C173.285 36.6523 174.516 36.0859 176.039 36.0859C178.68 36.0859 180.023 37.5977 180.07 40.6211V49H177.223V40.7852C177.223 39.9805 177.047 39.3867 176.695 39.0039C176.352 38.6133 175.785 38.418 174.996 38.418C173.848 38.418 172.992 38.9375 172.43 39.9766V49H169.582V36.3203H172.266ZM182.449 42.5664C182.449 40.6133 182.902 39.0469 183.809 37.8672C184.715 36.6797 185.93 36.0859 187.453 36.0859C188.797 36.0859 189.883 36.5547 190.711 37.4922V31H193.559V49H190.98L190.84 47.6875C189.988 48.7188 188.852 49.2344 187.43 49.2344C185.945 49.2344 184.742 48.6367 183.82 47.4414C182.906 46.2461 182.449 44.6211 182.449 42.5664ZM185.297 42.8125C185.297 44.1016 185.543 45.1094 186.035 45.8359C186.535 46.5547 187.242 46.9141 188.156 46.9141C189.32 46.9141 190.172 46.3945 190.711 45.3555V39.9414C190.188 38.9258 189.344 38.418 188.18 38.418C187.258 38.418 186.547 38.7852 186.047 39.5195C185.547 40.2461 185.297 41.3438 185.297 42.8125Z" fill="#FF6D3A"/>
<path d="M101.149 64.686H98.644V69H97.2305V58.3359H100.761C101.962 58.3359 102.885 58.6094 103.529 59.1562C104.179 59.7031 104.503 60.499 104.503 61.5439C104.503 62.208 104.323 62.7866 103.961 63.2798C103.605 63.7729 103.107 64.1416 102.467 64.3857L104.972 68.9121V69H103.463L101.149 64.686ZM98.644 63.5361H100.805C101.503 63.5361 102.057 63.3555 102.467 62.9941C102.882 62.6328 103.09 62.1494 103.09 61.5439C103.09 60.8848 102.892 60.3794 102.497 60.0278C102.106 59.6763 101.54 59.498 100.797 59.4932H98.644V63.5361ZM109.557 69.1465C108.483 69.1465 107.609 68.7949 106.935 68.0918C106.261 67.3838 105.924 66.439 105.924 65.2573V65.0083C105.924 64.2222 106.073 63.5215 106.371 62.9062C106.674 62.2861 107.094 61.8027 107.631 61.4561C108.173 61.1045 108.759 60.9287 109.389 60.9287C110.419 60.9287 111.22 61.2681 111.791 61.9468C112.362 62.6255 112.648 63.5972 112.648 64.8618V65.4258H107.279C107.299 66.207 107.526 66.8394 107.96 67.3228C108.4 67.8013 108.957 68.0405 109.63 68.0405C110.109 68.0405 110.514 67.9429 110.846 67.7476C111.178 67.5522 111.469 67.2935 111.718 66.9712L112.545 67.6157C111.881 68.6362 110.885 69.1465 109.557 69.1465ZM109.389 62.042C108.842 62.042 108.383 62.2422 108.012 62.6426C107.641 63.0381 107.411 63.5947 107.323 64.3125H111.293V64.21C111.254 63.5215 111.068 62.9893 110.736 62.6133C110.404 62.2324 109.955 62.042 109.389 62.042ZM116.735 67.1616L118.698 61.0752H120.082L117.24 69H116.208L113.336 61.0752H114.721L116.735 67.1616ZM122.858 69H121.503V61.0752H122.858V69ZM121.393 58.9731C121.393 58.7534 121.459 58.5679 121.591 58.4165C121.728 58.2651 121.928 58.1895 122.191 58.1895C122.455 58.1895 122.655 58.2651 122.792 58.4165C122.929 58.5679 122.997 58.7534 122.997 58.9731C122.997 59.1929 122.929 59.376 122.792 59.5225C122.655 59.6689 122.455 59.7422 122.191 59.7422C121.928 59.7422 121.728 59.6689 121.591 59.5225C121.459 59.376 121.393 59.1929 121.393 58.9731ZM128.322 69.1465C127.248 69.1465 126.374 68.7949 125.7 68.0918C125.026 67.3838 124.689 66.439 124.689 65.2573V65.0083C124.689 64.2222 124.838 63.5215 125.136 62.9062C125.438 62.2861 125.858 61.8027 126.396 61.4561C126.938 61.1045 127.523 60.9287 128.153 60.9287C129.184 60.9287 129.984 61.2681 130.556 61.9468C131.127 62.6255 131.413 63.5972 131.413 64.8618V65.4258H126.044C126.063 66.207 126.291 66.8394 126.725 67.3228C127.165 67.8013 127.721 68.0405 128.395 68.0405C128.874 68.0405 129.279 67.9429 129.611 67.7476C129.943 67.5522 130.233 67.2935 130.482 66.9712L131.31 67.6157C130.646 68.6362 129.65 69.1465 128.322 69.1465ZM128.153 62.042C127.606 62.042 127.147 62.2422 126.776 62.6426C126.405 63.0381 126.176 63.5947 126.088 64.3125H130.058V64.21C130.019 63.5215 129.833 62.9893 129.501 62.6133C129.169 62.2324 128.72 62.042 128.153 62.042ZM140.004 67.1323L141.527 61.0752H142.882L140.575 69H139.477L137.55 62.9941L135.675 69H134.577L132.277 61.0752H133.625L135.185 67.0078L137.03 61.0752H138.122L140.004 67.1323Z" fill="#828282"/>
<path d="M32.4507 104.065C32.3289 105.355 31.853 106.362 31.0229 107.087C30.1929 107.806 29.0889 108.166 27.7109 108.166C26.748 108.166 25.8986 107.939 25.1626 107.485C24.4321 107.026 23.8677 106.376 23.4692 105.535C23.0708 104.694 22.8633 103.717 22.8467 102.604V101.476C22.8467 100.336 23.0487 99.3312 23.4526 98.4624C23.8566 97.5936 24.4349 96.924 25.1875 96.4536C25.9456 95.9832 26.82 95.748 27.8105 95.748C29.1442 95.748 30.2178 96.1105 31.0312 96.8354C31.8447 97.5604 32.3179 98.5841 32.4507 99.9067H30.3589C30.2593 99.0379 30.0047 98.4126 29.5952 98.0308C29.1912 97.6434 28.5964 97.4497 27.8105 97.4497C26.8975 97.4497 26.1947 97.7845 25.7021 98.4541C25.2152 99.1182 24.9661 100.095 24.9551 101.384V102.455C24.9551 103.761 25.1875 104.757 25.6523 105.443C26.1227 106.13 26.8089 106.473 27.7109 106.473C28.5355 106.473 29.1553 106.287 29.5703 105.917C29.9854 105.546 30.2482 104.929 30.3589 104.065H32.4507ZM33.7622 103.426C33.7622 102.546 33.9365 101.755 34.2852 101.052C34.6338 100.344 35.1235 99.8016 35.7544 99.4253C36.3853 99.0435 37.1102 98.8525 37.9292 98.8525C39.1411 98.8525 40.1234 99.2427 40.876 100.023C41.6341 100.803 42.0436 101.838 42.1045 103.127L42.1128 103.601C42.1128 104.486 41.9412 105.277 41.5981 105.975C41.2606 106.672 40.7736 107.211 40.1372 107.593C39.5063 107.975 38.7759 108.166 37.9458 108.166C36.6785 108.166 35.6631 107.745 34.8994 106.904C34.1413 106.058 33.7622 104.931 33.7622 103.526V103.426ZM35.7793 103.601C35.7793 104.525 35.9702 105.25 36.3521 105.775C36.7339 106.296 37.2651 106.556 37.9458 106.556C38.6265 106.556 39.1549 106.29 39.5312 105.759C39.9131 105.228 40.104 104.45 40.104 103.426C40.104 102.519 39.9076 101.799 39.5146 101.268C39.1273 100.737 38.5988 100.471 37.9292 100.471C37.2707 100.471 36.7477 100.734 36.3604 101.26C35.973 101.78 35.7793 102.56 35.7793 103.601ZM38.9419 97.7651H37.2651L35.0239 95.25H37.3232L38.9419 97.7651ZM45.6904 99.0186L45.7485 100.056C46.4126 99.2537 47.2842 98.8525 48.3633 98.8525C50.2337 98.8525 51.1855 99.9233 51.2188 102.065V108H49.2017V102.181C49.2017 101.611 49.0771 101.191 48.8281 100.919C48.5846 100.643 48.1834 100.504 47.6245 100.504C46.811 100.504 46.2051 100.872 45.8066 101.608V108H43.7896V99.0186H45.6904ZM59.6606 108H57.6436V95.25H59.6606V108ZM67.231 108C67.1424 107.828 67.0649 107.549 66.9985 107.162C66.3566 107.831 65.5708 108.166 64.6411 108.166C63.7391 108.166 63.0031 107.909 62.4331 107.394C61.8631 106.879 61.5781 106.243 61.5781 105.485C61.5781 104.528 61.9323 103.794 62.6406 103.285C63.3545 102.771 64.3727 102.513 65.6953 102.513H66.9321V101.924C66.9321 101.459 66.8021 101.088 66.542 100.812C66.2819 100.529 65.8862 100.388 65.355 100.388C64.8957 100.388 64.5194 100.504 64.2261 100.737C63.9328 100.964 63.7861 101.254 63.7861 101.608H61.769C61.769 101.116 61.9323 100.657 62.2588 100.23C62.5853 99.7988 63.028 99.4613 63.5869 99.2178C64.1514 98.9743 64.7795 98.8525 65.4712 98.8525C66.5226 98.8525 67.361 99.1182 67.9863 99.6494C68.6117 100.175 68.9326 100.917 68.9492 101.874V105.925C68.9492 106.733 69.0627 107.377 69.2896 107.859V108H67.231ZM65.0146 106.547C65.4131 106.547 65.7866 106.451 66.1353 106.257C66.4894 106.063 66.755 105.803 66.9321 105.477V103.783H65.8447C65.0977 103.783 64.536 103.913 64.1597 104.173C63.7834 104.433 63.5952 104.801 63.5952 105.277C63.5952 105.665 63.7225 105.975 63.9771 106.207C64.2371 106.434 64.583 106.547 65.0146 106.547ZM63.7197 109.942C63.7197 109.649 63.8166 109.403 64.0103 109.204C64.2095 109.01 64.4917 108.913 64.8569 108.913C65.2222 108.913 65.5044 109.01 65.7036 109.204C65.9028 109.403 66.0024 109.649 66.0024 109.942C66.0024 110.236 65.9028 110.479 65.7036 110.673C65.5044 110.867 65.2222 110.963 64.8569 110.963C64.4917 110.963 64.2095 110.867 64.0103 110.673C63.8166 110.479 63.7197 110.236 63.7197 109.942ZM73.2075 108H71.1904V99.0186H73.2075V108ZM71.0659 96.686C71.0659 96.3761 71.1628 96.1188 71.3564 95.9141C71.5557 95.7093 71.8379 95.6069 72.2031 95.6069C72.5684 95.6069 72.8506 95.7093 73.0498 95.9141C73.249 96.1188 73.3486 96.3761 73.3486 96.686C73.3486 96.9904 73.249 97.245 73.0498 97.4497C72.8506 97.6489 72.5684 97.7485 72.2031 97.7485C71.8379 97.7485 71.5557 97.6489 71.3564 97.4497C71.1628 97.245 71.0659 96.9904 71.0659 96.686ZM89.665 94.4546L83.6973 108H81.0825L87.04 95.0698H79.3188V93.0703H89.665V94.4546ZM101.396 101.714C101.396 103.861 100.992 105.481 100.186 106.575C99.3857 107.662 98.1655 108.205 96.5249 108.205C94.9116 108.205 93.6948 107.675 92.8745 106.616C92.061 105.549 91.644 103.974 91.6235 101.889V99.3047C91.6235 97.1582 92.0234 95.5483 92.8232 94.4751C93.6299 93.4019 94.8569 92.8652 96.5044 92.8652C98.1382 92.8652 99.355 93.3882 100.155 94.4341C100.961 95.48 101.375 97.0454 101.396 99.1304V101.714ZM98.9038 98.9253C98.9038 97.5239 98.7124 96.4985 98.3296 95.8491C97.9468 95.1929 97.3384 94.8647 96.5044 94.8647C95.6909 94.8647 95.0928 95.1758 94.71 95.7979C94.3271 96.4131 94.1255 97.377 94.105 98.6895V102.073C94.105 103.468 94.2998 104.507 94.6895 105.19C95.0791 105.874 95.6909 106.216 96.5249 106.216C97.3247 106.216 97.916 105.901 98.2988 105.272C98.6816 104.637 98.8833 103.646 98.9038 102.299V98.9253ZM113.331 101.714C113.331 103.861 112.928 105.481 112.121 106.575C111.321 107.662 110.101 108.205 108.46 108.205C106.847 108.205 105.63 107.675 104.81 106.616C103.997 105.549 103.58 103.974 103.559 101.889V99.3047C103.559 97.1582 103.959 95.5483 104.759 94.4751C105.565 93.4019 106.792 92.8652 108.44 92.8652C110.074 92.8652 111.291 93.3882 112.09 94.4341C112.897 95.48 113.311 97.0454 113.331 99.1304V101.714ZM110.839 98.9253C110.839 97.5239 110.648 96.4985 110.265 95.8491C109.882 95.1929 109.274 94.8647 108.44 94.8647C107.626 94.8647 107.028 95.1758 106.646 95.7979C106.263 96.4131 106.061 97.377 106.041 98.6895V102.073C106.041 103.468 106.235 104.507 106.625 105.19C107.015 105.874 107.626 106.216 108.46 106.216C109.26 106.216 109.852 105.901 110.234 105.272C110.617 104.637 110.819 103.646 110.839 102.299V98.9253ZM124.138 105.369L127.209 95.9141H129.517L125.167 108H123.134L118.801 95.9141H121.1L124.138 105.369ZM140.474 108H138.374L132.987 99.4253V108H130.887V95.9141H132.987L138.391 104.522V95.9141H140.474V108ZM142.956 108V95.9141H146.525C147.593 95.9141 148.54 96.152 149.364 96.6279C150.194 97.1038 150.836 97.779 151.29 98.6533C151.744 99.5277 151.971 100.529 151.971 101.658V102.264C151.971 103.41 151.741 104.417 151.282 105.286C150.828 106.154 150.178 106.824 149.331 107.294C148.49 107.765 147.524 108 146.434 108H142.956ZM145.056 97.6074V106.323H146.426C147.527 106.323 148.371 105.98 148.958 105.294C149.55 104.602 149.851 103.612 149.862 102.322V101.65C149.862 100.338 149.577 99.3368 149.007 98.645C148.437 97.9533 147.61 97.6074 146.525 97.6074H145.056Z" fill="#CF3066"/>
<defs>
<filter id="filter0_d_1_906" x="0" y="0" width="252" height="132" filterUnits="userSpaceOnUse" color-interpolation-filters="sRGB">
<feFlood flood-opacity="0" result="BackgroundImageFix"/>
<feColorMatrix in="SourceAlpha" type="matrix" values="0 0 0 0 0 0 0 0 0 0 0 0 0 0 0 0 0 0 127 0" result="hardAlpha"/>
<feOffset/>
<feGaussianBlur stdDeviation="3"/>
<feColorMatrix type="matrix" values="0 0 0 0 0 0 0 0 0 0 0 0 0 0 0 0 0 0 0.1 0"/>
<feBlend mode="normal" in2="BackgroundImageFix" result="effect1_dropShadow_1_906"/>
<feBlend mode="normal" in="SourceGraphic" in2="effect1_dropShadow_1_906" result="shape"/>
</filter>
<clipPath id="clip0_1_906">
<rect width="54" height="54" fill="white" transform="translate(22 19)"/>
</clipPath>
</defs>
</svg>
