<svg width="40" height="40" viewBox="0 0 40 40" fill="none" xmlns="http://www.w3.org/2000/svg">
<path d="M19.9945 0.05047C19.9945 0.05047 31.7567 -0.475475 37.9927 11.3051H18.9937C18.9937 11.3051 15.4082 11.1899 12.3454 15.5241C11.4656 17.3433 10.5199 19.2173 11.5811 22.9104C10.0523 20.3295 3.4646 8.89973 3.4646 8.89973C3.4646 8.89973 8.11121 0.516196 19.9944 0.05047H19.9945Z" fill="#EF3F36"/>
<path d="M37.3821 29.9567C37.3821 29.9567 31.9546 40.3729 18.6033 39.8579C20.253 37.014 28.1054 23.4637 28.1054 23.4637C28.1054 23.4637 30.0026 20.4281 27.7645 15.6173C26.626 13.9461 25.4658 12.1982 21.7266 11.2666C24.7346 11.2394 37.9596 11.2666 37.9596 11.2666C37.9596 11.2666 42.914 19.4693 37.3821 29.9567Z" fill="#FCD900"/>
<path d="M2.6891 30.039C2.6891 30.039 -3.65124 20.1487 3.47538 8.88321C5.11961 11.7271 12.9721 25.2775 12.9721 25.2775C12.9721 25.2775 14.6658 28.4336 19.9613 28.9046C21.9795 28.7568 24.0801 28.6308 26.7637 25.8747C25.2842 28.483 18.6469 39.88 18.6469 39.88C18.6469 39.88 9.03476 40.0553 2.68895 30.039H2.6891Z" fill="#61BC5B"/>
<path d="M18.5979 39.9564L21.2704 28.8444C21.2704 28.8444 24.2069 28.6141 26.6705 25.9238C25.1417 28.6033 18.5979 39.9564 18.5979 39.9564Z" fill="#5AB055"/>
<path d="M11.0422 20.1266C11.0422 15.2282 15.0291 11.2556 19.9451 11.2556C24.861 11.2556 28.8479 15.2282 28.8479 20.1266C28.8479 25.0251 24.861 28.9975 19.9451 28.9975C15.0291 28.9921 11.0422 25.0251 11.0422 20.1266Z" fill="white"/>
<path d="M12.5325 20.1267C12.5325 16.0501 15.8484 12.7405 19.9452 12.7405C24.0364 12.7405 27.3578 16.0447 27.3578 20.1267C27.3578 24.2034 24.042 27.513 19.9452 27.513C15.8539 27.513 12.5325 24.2034 12.5325 20.1267Z" fill="url(#paint0_linear_36_504)"/>
<path d="M37.9541 11.2721L26.9507 14.4885C26.9507 14.4885 25.2901 12.0611 21.7213 11.2721C24.8172 11.2557 37.9541 11.2721 37.9541 11.2721Z" fill="#EACA05"/>
<path d="M11.3667 22.505C9.82134 19.8365 3.4646 8.89964 3.4646 8.89964L11.6141 16.9324C11.6141 16.9324 10.7782 18.6475 11.0917 21.1022L11.3666 22.505H11.3667Z" fill="#DF3A32"/>
<defs>
<linearGradient id="paint0_linear_36_504" x1="19.9449" y1="12.8448" x2="19.9449" y2="27.0683" gradientUnits="userSpaceOnUse">
<stop stop-color="#86BBE5"/>
<stop offset="1" stop-color="#1072BA"/>
</linearGradient>
</defs>
</svg>
