<svg width="60" height="60" viewBox="0 0 60 60" fill="none" xmlns="http://www.w3.org/2000/svg">
<rect opacity="0.1" width="60" height="60" rx="24" fill="#27AE60"/>
<path fill-rule="evenodd" clip-rule="evenodd" d="M34.6032 34.3572C35.2192 34.0033 35.9149 33.6037 36.7925 33.7896C37.5873 33.9567 40.7899 36.5023 41.5318 37.2603C42.0196 37.7574 42.2886 38.2709 42.3321 38.7844C42.4041 40.8002 39.4216 43.3295 38.9203 43.6161C38.2558 44.0929 37.4841 44.3333 36.6145 44.3333C35.7272 44.3333 34.7394 44.0834 33.6592 43.5808C27.8057 41.1479 18.7701 32.1134 16.4072 26.3267C15.4262 24.1723 15.4194 22.3969 16.3896 21.0603C16.7782 20.4341 19.2225 17.5856 21.1995 17.6684C21.724 17.7133 22.2362 17.9822 22.7363 18.4699C23.4944 19.2116 26.0407 22.4132 26.2079 23.2079C26.3913 24.0922 25.9877 24.7931 25.6317 25.4112L25.6313 25.412C25.266 26.0474 24.9498 26.5973 25.2037 27.298C26.644 30.8257 29.1726 33.3536 32.7149 34.7989C33.4051 35.0488 33.9541 34.7323 34.5886 34.3656L34.6032 34.3572ZM32.7069 17.6739C32.1916 17.609 31.7285 17.9872 31.6725 18.5017C31.6153 19.0162 31.9868 19.4785 32.4995 19.5358C36.7162 20.0058 39.9925 23.28 40.4658 27.5005C40.5205 27.9793 40.9251 28.3333 41.3959 28.3333C41.4303 28.3333 41.4659 28.3308 41.5015 28.327C42.0155 28.2697 42.3858 27.8061 42.3273 27.2903C41.7547 22.1937 37.7989 18.2381 32.7069 17.6739ZM36.3515 27.5244C36.4452 28.003 36.8623 28.3333 37.3324 28.3333C37.3962 28.3333 37.4601 28.3265 37.5253 28.3157C38.0673 28.2083 38.4205 27.6834 38.3146 27.141C37.7739 24.3646 35.6315 22.2233 32.8587 21.6821C32.3194 21.5883 31.7923 21.9296 31.685 22.4734C31.5804 23.0159 31.935 23.5421 32.4756 23.6468C34.4469 24.0302 35.967 25.5529 36.3515 27.5244Z" fill="url(#paint0_linear_1_527)"/>
<defs>
<linearGradient id="paint0_linear_1_527" x1="29" y1="17.6667" x2="29" y2="44.3333" gradientUnits="userSpaceOnUse">
<stop stop-color="#39C976"/>
<stop offset="1" stop-color="#27AE60"/>
</linearGradient>
</defs>
</svg>
