<svg width="60" height="60" viewBox="0 0 60 60" fill="none" xmlns="http://www.w3.org/2000/svg">
<path opacity="0.1" d="M0 24C0 10.7452 10.7452 0 24 0H36C49.2548 0 60 10.7452 60 24V36C60 49.2548 49.2548 60 36 60H24C10.7452 60 0 49.2548 0 36V24Z" fill="#CF3066"/>
<path fill-rule="evenodd" clip-rule="evenodd" d="M43.3334 25.1757H37.6919V25.222C35.0736 25.222 32.9511 27.2913 32.9511 29.844C32.9511 32.3967 35.0736 34.4661 37.6919 34.4661H43.3334V34.882C43.3334 39.3539 40.6193 42 36.0208 42H23.9793C19.3808 42 16.6667 39.3539 16.6667 34.882V25.118C16.6667 20.6461 19.3808 18 23.9793 18H36.0208C40.6193 18 43.3334 20.6461 43.3334 25.1757ZM22.9837 25.1757H30.5096C31.0726 25.1757 31.5289 24.7308 31.5289 24.182C31.5289 23.6331 31.0726 23.1882 30.5096 23.1882H22.9837C22.4254 23.1882 21.971 23.6261 21.9645 24.1704C21.9644 24.7211 22.4189 25.1694 22.9837 25.1757Z" fill="url(#paint0_linear_1_543)"/>
<path d="M42.55 29.2701L39.63 26.3601C39.33 26.0601 38.84 26.0601 38.54 26.3701C38.24 26.6701 38.24 27.1601 38.54 27.4601L40.14 29.0501H36.77C36.3447 29.0501 36 29.3948 36 29.8201C36 30.2454 36.3447 30.5901 36.77 30.5901H40.14L38.54 32.1801C38.24 32.4801 38.24 32.9701 38.54 33.2701C38.69 33.4201 38.89 33.5001 39.09 33.5001C39.28 33.5001 39.48 33.4201 39.63 33.2701L42.55 30.3601C42.7 30.2201 42.78 30.0201 42.78 29.8201C42.78 29.6101 42.7 29.4201 42.55 29.2701Z" fill="#E93D77"/>
<defs>
<linearGradient id="paint0_linear_1_543" x1="30" y1="18" x2="30" y2="42" gradientUnits="userSpaceOnUse">
<stop stop-color="#EC3F7A"/>
<stop offset="1" stop-color="#CF3066"/>
</linearGradient>
</defs>
</svg>
