<svg width="40" height="40" viewBox="0 0 40 40" fill="none" xmlns="http://www.w3.org/2000/svg">
<circle opacity="0.1" cx="20" cy="20" r="20" fill="#36A5FF"/>
<path fill-rule="evenodd" clip-rule="evenodd" d="M28.4022 21.5801C28.7599 21.7701 29.0358 22.0701 29.23 22.3701C29.6081 22.9901 29.5775 23.7501 29.2096 24.4201L28.4942 25.6201C28.1161 26.2601 27.4109 26.6601 26.6853 26.6601C26.3277 26.6601 25.9291 26.5601 25.6021 26.3601C25.3364 26.1901 25.0298 26.1301 24.7027 26.1301C23.691 26.1301 22.8428 26.9601 22.8121 27.9501C22.8121 29.1001 21.8719 30.0001 20.6967 30.0001H19.3068C18.1213 30.0001 17.1811 29.1001 17.1811 27.9501C17.1607 26.9601 16.3125 26.1301 15.3007 26.1301C14.9635 26.1301 14.6569 26.1901 14.4014 26.3601C14.0744 26.5601 13.6656 26.6601 13.3181 26.6601C12.5823 26.6601 11.8772 26.2601 11.499 25.6201L10.7939 24.4201C10.4158 23.7701 10.3953 22.9901 10.7735 22.3701C10.937 22.0701 11.2436 21.7701 11.591 21.5801C11.8772 21.4401 12.0611 21.2101 12.2349 20.9401C12.7458 20.0801 12.4392 18.9501 11.5706 18.4401C10.5588 17.8701 10.2318 16.6001 10.8143 15.6101L11.499 14.4301C12.0918 13.4401 13.359 13.0901 14.381 13.6701C15.2701 14.1501 16.4249 13.8301 16.9461 12.9801C17.1096 12.7001 17.2016 12.4001 17.1811 12.1001C17.1607 11.7101 17.2731 11.3401 17.4673 11.0401C17.8454 10.4201 18.5301 10.0201 19.2761 10.0001H20.7171C21.4734 10.0001 22.1581 10.4201 22.5362 11.0401C22.7201 11.3401 22.8428 11.7101 22.8121 12.1001C22.7917 12.4001 22.8837 12.7001 23.0472 12.9801C23.5684 13.8301 24.7232 14.1501 25.6225 13.6701C26.6342 13.0901 27.9117 13.4401 28.4942 14.4301L29.1789 15.6101C29.7716 16.6001 29.4446 17.8701 28.4227 18.4401C27.554 18.9501 27.2474 20.0801 27.7686 20.9401C27.9321 21.2101 28.1161 21.4401 28.4022 21.5801ZM17.1096 20.0101C17.1096 21.5801 18.4075 22.8301 20.012 22.8301C21.6164 22.8301 22.8837 21.5801 22.8837 20.0101C22.8837 18.4401 21.6164 17.1801 20.012 17.1801C18.4075 17.1801 17.1096 18.4401 17.1096 20.0101Z" fill="url(#paint0_linear_36_275)"/>
<defs>
<linearGradient id="paint0_linear_36_275" x1="19.9999" y1="10.0001" x2="19.9999" y2="30.0001" gradientUnits="userSpaceOnUse">
<stop stop-color="#5FB7FF"/>
<stop offset="1" stop-color="#36A5FF"/>
</linearGradient>
</defs>
</svg>
